<svg xmlns="http://www.w3.org/2000/svg" width="100" height="86" viewBox="0 0 100 86" fill="none">
    <path d="M20.4594 77.9501L24.028 52.9772C40.6267 53.1879 54.6561 30.8592 46.7374 8.30614L28.385 5.68243L10.0326 3.05872C-3.88126 22.4919 3.33055 47.8521 19.3175 52.3043L15.749 77.2772C1.04669 75.7138 -3.46664 80.5194 2.65083 81.3962C9.08776 82.3139 -2.05282 80.7233 17.2648 83.483C36.5824 86.2426 25.435 84.6521 31.8787 85.5697C37.9962 86.4465 35.0122 80.5738 20.4594 77.9501Z" fill="white"/>
    <path d="M43.6379 23.4638C37.0378 19.2224 32.9935 17.2036 23.7357 18.5563C17.761 19.4331 12.8195 16.1637 10.0598 13.7371C3.0791 28.9288 9.8559 46.18 22.3491 47.9677C33.5237 49.565 43.7738 37.9962 44.0593 23.6949C43.9234 23.627 43.7806 23.559 43.6379 23.4638Z" fill="#EA5D5A"/>
    <path d="M22.3423 47.9677C29.69 49.0213 36.6164 44.3584 40.5995 36.9971C35.3181 31.804 28.6365 32.1031 18.5155 33.4694C11.2629 34.4481 8.45563 28.1947 7.38168 23.7154C6.28053 35.6716 12.5543 46.5675 22.3423 47.9677Z" fill="#FF9A98"/>
    <path d="M34.8082 21.7918C34.7471 22.2404 34.3324 22.5463 33.8838 22.4851C33.4352 22.424 33.1293 22.0093 33.1905 21.5607C33.2517 21.1121 33.6663 20.8062 34.1149 20.8674C34.5635 20.9286 34.8694 21.3432 34.8082 21.7918Z" fill="white"/>
    <path d="M38.873 25.0476C38.7643 25.8293 38.037 26.3731 37.2553 26.2575C36.4736 26.142 35.9298 25.4215 36.0454 24.6398C36.1541 23.8581 36.8814 23.3144 37.6631 23.4299C38.4448 23.5455 38.9886 24.266 38.873 25.0476Z" fill="white"/>
    <path d="M35.7872 29.3435C35.7056 29.9009 35.189 30.2883 34.6317 30.2067C34.0743 30.1252 33.6868 29.6086 33.7684 29.0512C33.85 28.4938 34.3666 28.1064 34.9239 28.188C35.4813 28.2695 35.8687 28.7861 35.7872 29.3435Z" fill="white"/>
    <path d="M79.5337 74.8914L75.9652 49.9185C59.3665 50.1292 45.3371 27.8073 53.2558 5.24742L71.6082 2.62371L89.9606 0C103.881 19.4331 96.6694 44.7934 80.6825 49.2456L84.251 74.2184C98.9533 72.6551 103.467 77.4607 97.3492 78.3375C90.9122 79.2551 102.053 77.6646 82.7352 80.4243C63.4176 83.1839 74.565 81.5934 68.1213 82.511C61.997 83.3878 64.981 77.5151 79.5337 74.8914Z" fill="white"/>
    <path d="M56.3554 20.4051C62.9555 16.1637 66.9998 14.1449 76.2576 15.4975C82.2323 16.3744 87.1739 13.1049 89.9335 10.6783C96.9142 25.87 90.1374 43.1213 77.6442 44.909C66.4697 46.5063 56.2195 34.9375 55.934 20.6362C56.07 20.5682 56.2127 20.5003 56.3554 20.4051Z" fill="#FFCB1B"/>
    <path d="M77.651 44.909C70.3033 45.9625 63.3769 41.2997 59.3938 33.9383C64.6752 28.7453 71.3568 29.0443 81.4778 30.4106C88.7304 31.3894 91.5377 25.136 92.6116 20.6566C93.7128 32.6129 87.439 43.5087 77.651 44.909Z" fill="#FCAF23"/>
    <path d="M65.185 18.733C65.2462 19.1817 65.6608 19.4875 66.1094 19.4264C66.5581 19.3652 66.8639 18.9505 66.8028 18.5019C66.7416 18.0533 66.327 17.7474 65.8783 17.8086C65.4297 17.8698 65.1239 18.2844 65.185 18.733Z" fill="white"/>
    <path d="M61.1202 21.9889C61.229 22.7706 61.9563 23.3144 62.738 23.1988C63.5196 23.0901 64.0634 22.3628 63.9479 21.5811C63.8391 20.7994 63.1118 20.2556 62.3301 20.3712C61.5484 20.4867 61.0047 21.2073 61.1202 21.9889Z" fill="white"/>
    <path d="M64.2062 26.2848C64.2877 26.8421 64.8043 27.2296 65.3617 27.148C65.919 27.0664 66.3065 26.5499 66.2249 25.9925C66.1434 25.4351 65.6268 25.0477 65.0694 25.1293C64.512 25.2108 64.1246 25.7274 64.2062 26.2848Z" fill="white"/>
</svg>