<svg xmlns="http://www.w3.org/2000/svg" width="20" height="20" viewBox="0 0 20 20" fill="none">
    <path d="M19.6094 17.3862H17.843V12.3358C17.843 11.5648 17.2163 10.9375 16.4459 10.9375H15.9407V5.79738C15.9407 5.07582 15.3538 4.48883 14.6322 4.48883H12.5392V3.47668C13.1219 3.30969 13.5491 2.77937 13.5491 2.1523C13.5491 1.76074 13.3399 1.23812 13.1442 0.87957C12.8256 0.295938 12.4906 0 12.1486 0C11.8062 0 11.4709 0.295898 11.1521 0.879492C10.9563 1.23793 10.7471 1.76055 10.7471 2.1523C10.7471 2.77949 11.1747 3.30988 11.758 3.47676V4.48883H8.24195V3.47676C8.82523 3.30984 9.25289 2.77945 9.25289 2.1523C9.25289 1.76055 9.04367 1.23793 8.84785 0.879492C8.52906 0.295898 8.19379 0 7.85137 0C7.50894 0 7.17367 0.295898 6.85488 0.879492C6.65906 1.23793 6.4498 1.76055 6.4498 2.1523C6.4498 2.77949 6.87746 3.30988 7.46074 3.47676V4.48883H5.36668C4.64574 4.48883 4.05922 5.07582 4.05922 5.79738V10.9375H3.55406C2.78309 10.9375 2.15582 11.5648 2.15582 12.3358V17.3862H0.390625C0.174883 17.3862 0 17.5612 0 17.7769C0 17.9926 0.174883 18.1675 0.390625 18.1675H1.24707L2.11555 19.7934C2.18348 19.9206 2.31594 20 2.46012 20H17.5388C17.6829 20 17.8154 19.9207 17.8833 19.7936L18.7528 18.1675H19.6094C19.8251 18.1675 20 17.9926 20 17.7769C20 17.5612 19.8251 17.3862 19.6094 17.3862ZM11.5283 2.1523C11.5283 1.79254 11.9181 1.01594 12.1484 0.811523C12.3784 1.01637 12.7679 1.79297 12.7679 2.1523C12.7679 2.48211 12.4901 2.75043 12.1486 2.75043C11.8066 2.75043 11.5283 2.48211 11.5283 2.1523ZM7.23105 2.1523C7.23105 1.79238 7.62113 1.01535 7.85137 0.81125C8.0816 1.01535 8.47168 1.79238 8.47168 2.1523C8.47168 2.48211 8.1934 2.75043 7.85137 2.75043C7.50934 2.75043 7.23105 2.48211 7.23105 2.1523ZM4.84047 5.79738C4.84047 5.50664 5.07652 5.27008 5.36668 5.27008H14.6322C14.923 5.27008 15.1595 5.50664 15.1595 5.79738V6.65246H12.9603C12.4042 6.65246 11.9518 7.10484 11.9518 7.6609C11.9518 7.91074 11.7485 8.11402 11.4987 8.11402C11.2488 8.11402 11.0455 7.91078 11.0455 7.6609C11.0455 6.98027 10.4918 6.42652 9.81117 6.42652C9.13051 6.42652 8.5768 6.98027 8.5768 7.6609V8.8302C8.5768 9.08004 8.37352 9.28332 8.12367 9.28332C7.87383 9.28332 7.67055 9.08008 7.67055 8.8302V7.6609C7.67055 7.10484 7.21863 6.65246 6.66316 6.65246H4.84035V5.79738H4.84047ZM2.93707 12.3358C2.93707 11.9956 3.21383 11.7188 3.55406 11.7188H8.24555C8.46129 11.7188 8.63617 11.5439 8.63617 11.3282C8.63617 11.1125 8.46129 10.9375 8.24555 10.9375H4.84047V7.43371H6.66328C6.78586 7.43371 6.88941 7.53773 6.88941 7.6609V8.8302C6.88941 9.51082 7.44312 10.0646 8.12379 10.0646C8.80445 10.0646 9.35816 9.51082 9.35816 8.8302V7.6609C9.35816 7.41105 9.56145 7.20777 9.81129 7.20777C10.0611 7.20777 10.2644 7.41102 10.2644 7.6609C10.2644 8.34152 10.8181 8.89527 11.4988 8.89527C12.1795 8.89527 12.7332 8.34152 12.7332 7.6609C12.7332 7.53777 12.8372 7.43371 12.9604 7.43371H15.1596V10.9375H11.7535C11.5377 10.9375 11.3629 11.1125 11.3629 11.3282C11.3629 11.5439 11.5377 11.7188 11.7535 11.7188H16.4461C16.7857 11.7188 17.062 11.9956 17.062 12.3358V13.5988L16.8169 13.8634C16.6847 14.0064 16.5659 14.1077 16.239 14.1077C15.9111 14.1077 15.7922 14.0064 15.6597 13.863L15.3096 13.4851C15.0819 13.2416 14.767 12.9927 14.1585 12.9927C13.5484 12.9927 13.2343 13.2421 13.0071 13.4865L12.6588 13.8625C12.5254 14.0061 12.4057 14.1077 12.079 14.1077C11.7521 14.1077 11.6333 14.0064 11.5004 13.8625L11.1505 13.4861C10.9237 13.2421 10.6096 12.9927 9.99957 12.9927C9.38949 12.9927 9.07543 13.2421 8.84867 13.4861L8.49797 13.8634C8.36582 14.0064 8.24703 14.1077 7.92016 14.1077C7.59324 14.1077 7.47445 14.0064 7.34152 13.8625L6.9916 13.4861C6.76484 13.2421 6.45078 12.9927 5.8407 12.9927C5.23063 12.9927 4.91656 13.2421 4.6898 13.4861L4.33914 13.8634C4.20695 14.0064 4.08816 14.1077 3.76129 14.1077C3.43438 14.1077 3.31559 14.0064 3.18266 13.8625L2.93727 13.5985V12.3358H2.93707ZM2.93707 14.6735C3.13504 14.7985 3.39426 14.8889 3.76113 14.8889C4.37266 14.8889 4.68648 14.6385 4.91203 14.3943L5.26191 14.0179C5.39469 13.875 5.51395 13.7739 5.84055 13.7739C6.16715 13.7739 6.28641 13.875 6.41918 14.0179L6.76828 14.3935C6.99457 14.6384 7.3084 14.8889 7.91996 14.8889C8.53152 14.8889 8.84531 14.6384 9.07082 14.3943L9.42074 14.0179C9.55352 13.875 9.67277 13.7739 9.99937 13.7739C10.326 13.7739 10.4452 13.875 10.578 14.0179L10.9271 14.3935C11.1535 14.6384 11.4673 14.8889 12.0788 14.8889C12.6888 14.8889 13.0035 14.6389 13.2312 14.3939L13.5796 14.0179C13.7124 13.875 13.8316 13.7739 14.1582 13.7739C14.4846 13.7739 14.6047 13.8754 14.7376 14.0174L15.086 14.3935C15.3123 14.6384 15.6263 14.8889 16.2388 14.8889C16.605 14.8889 16.864 14.7988 17.0617 14.6742V17.3862H15.3226C15.405 17.2113 15.4513 17.0161 15.4513 16.8102C15.4513 16.0618 14.8424 15.453 14.094 15.453C13.3456 15.453 12.7368 16.0618 12.7368 16.8102C12.7368 17.0161 12.783 17.2113 12.8654 17.3862H11.2277C11.3102 17.211 11.3566 17.0154 11.3566 16.8091C11.3566 16.0607 10.7478 15.4519 9.99937 15.4519C9.25098 15.4519 8.64211 16.0607 8.64211 16.8091C8.64211 17.0154 8.68852 17.211 8.77106 17.3862H7.13414C7.21668 17.211 7.26309 17.0154 7.26309 16.8091C7.26309 16.0607 6.65422 15.4519 5.90582 15.4519C5.15742 15.4519 4.54855 16.0607 4.54855 16.8091C4.54855 17.0154 4.59496 17.211 4.6775 17.3862H2.93707V14.6735ZM14.6701 16.8102C14.6701 17.1279 14.4117 17.3862 14.0941 17.3862C13.7765 17.3862 13.5181 17.1279 13.5181 16.8102C13.5181 16.4926 13.7765 16.2342 14.0941 16.2342C14.4117 16.2342 14.6701 16.4926 14.6701 16.8102ZM10.5755 16.8091C10.5755 17.1273 10.3171 17.3862 9.99945 17.3862C9.68184 17.3862 9.42344 17.1273 9.42344 16.8091C9.42344 16.4915 9.68184 16.2331 9.99945 16.2331C10.3171 16.2331 10.5755 16.4915 10.5755 16.8091ZM6.48191 16.8091C6.48191 17.1273 6.22352 17.3862 5.9059 17.3862C5.58828 17.3862 5.32988 17.1273 5.32988 16.8091C5.32988 16.4915 5.58828 16.2331 5.9059 16.2331C6.22352 16.2331 6.48191 16.4915 6.48191 16.8091ZM17.3047 19.2188H2.6943L2.13281 18.1675H17.8669L17.3047 19.2188Z" fill="#D898FF"/>
    <path d="M9.99947 11.7188H10.0017C10.2174 11.7188 10.3912 11.5439 10.3912 11.3282C10.3912 11.1125 10.2153 10.9375 9.99951 10.9375C9.78377 10.9375 9.60889 11.1125 9.60889 11.3282C9.60889 11.5439 9.78373 11.7188 9.99947 11.7188Z" fill="#D898FF"/>
</svg>