<svg xmlns="http://www.w3.org/2000/svg" width="42" height="42" viewBox="0 0 42 42" fill="none">
    <path d="M41.1797 36.5111H37.4704V25.9051C37.4704 24.2861 36.1542 22.9688 34.5364 22.9688H33.4756V12.1745C33.4756 10.6592 32.2429 9.42654 30.7276 9.42654H26.3324V7.30103C27.5559 6.95034 28.453 5.83669 28.453 4.51984C28.453 3.69756 28.0138 2.60006 27.6028 1.8471C26.9337 0.621469 26.2303 0 25.5121 0C24.793 0 24.089 0.621387 23.4194 1.84693C23.0082 2.59965 22.5688 3.69715 22.5688 4.51984C22.5688 5.83693 23.4669 6.95075 24.6918 7.30119V9.42654H17.3081V7.30119C18.533 6.95067 19.4311 5.83685 19.4311 4.51984C19.4311 3.69715 18.9917 2.59965 18.5805 1.84693C17.911 0.621387 17.207 0 16.4879 0C15.7688 0 15.0647 0.621387 14.3953 1.84693C13.984 2.59965 13.5446 3.69715 13.5446 4.51984C13.5446 5.83693 14.4427 6.95075 15.6676 7.30119V9.42654H11.27C9.75606 9.42654 8.52436 10.6592 8.52436 12.1745V22.9688H7.46353C5.84448 22.9688 4.52722 24.2861 4.52722 25.9051V36.5111H0.820312C0.367254 36.5111 0 36.8785 0 37.3314C0 37.7844 0.367254 38.1518 0.820312 38.1518H2.61885L4.44265 41.5661C4.5853 41.8332 4.86347 42 5.16625 42H36.8315C37.1342 42 37.4122 41.8334 37.5549 41.5665L39.3809 38.1518H41.1797C41.6327 38.1518 42 37.7844 42 37.3314C42 36.8785 41.6327 36.5111 41.1797 36.5111ZM24.2095 4.51984C24.2095 3.76433 25.028 2.13347 25.5116 1.7042C25.9947 2.13437 26.8125 3.76523 26.8125 4.51984C26.8125 5.21243 26.2292 5.7759 25.5121 5.7759C24.7939 5.7759 24.2095 5.21243 24.2095 4.51984ZM15.1852 4.51984C15.1852 3.764 16.0044 2.13224 16.4879 1.70362C16.9714 2.13224 17.7905 3.764 17.7905 4.51984C17.7905 5.21243 17.2061 5.7759 16.4879 5.7759C15.7696 5.7759 15.1852 5.21243 15.1852 4.51984ZM10.165 12.1745C10.165 11.5639 10.6607 11.0672 11.27 11.0672H30.7277C31.3382 11.0672 31.835 11.5639 31.835 12.1745V13.9702H27.2166C26.0489 13.9702 25.0988 14.9202 25.0988 16.0879C25.0988 16.6126 24.6719 17.0394 24.1472 17.0394C23.6225 17.0394 23.1956 16.6126 23.1956 16.0879C23.1956 14.6586 22.0329 13.4957 20.6035 13.4957C19.1741 13.4957 18.0113 14.6586 18.0113 16.0879V18.5434C18.0113 19.0681 17.5844 19.495 17.0597 19.495C16.535 19.495 16.1081 19.0682 16.1081 18.5434V16.0879C16.1081 14.9202 15.1591 13.9702 13.9926 13.9702H10.1647V12.1745H10.165ZM6.16785 25.9051C6.16785 25.1907 6.74904 24.6095 7.46353 24.6095H17.3156C17.7687 24.6095 18.136 24.2421 18.136 23.7891C18.136 23.3362 17.7687 22.9688 17.3156 22.9688H10.165V15.6108H13.9929C14.2503 15.6108 14.4678 15.8292 14.4678 16.0879V18.5434C14.4678 19.9727 15.6306 21.1356 17.06 21.1356C18.4894 21.1356 19.6521 19.9727 19.6521 18.5434V16.0879C19.6521 15.5632 20.079 15.1363 20.6037 15.1363C21.1284 15.1363 21.5553 15.5631 21.5553 16.0879C21.5553 17.5172 22.7181 18.6801 24.1475 18.6801C25.5769 18.6801 26.7396 17.5172 26.7396 16.0879C26.7396 15.8293 26.9582 15.6108 27.2168 15.6108H31.8353V22.9688H24.6823C24.2292 22.9688 23.862 23.3362 23.862 23.7891C23.862 24.2421 24.2292 24.6095 24.6823 24.6095H34.5367C35.2499 24.6095 35.8301 25.1907 35.8301 25.9051V28.5575L35.3154 29.1131C35.0379 29.4135 34.7885 29.6261 34.1019 29.6261C33.4133 29.6261 33.1637 29.4135 32.8853 29.1122L32.1503 28.3187C31.6719 27.8074 31.0106 27.2846 29.7328 27.2846C28.4516 27.2846 27.7921 27.8083 27.315 28.3217L26.5835 29.1112C26.3032 29.4127 26.0519 29.6261 25.3659 29.6261C24.6795 29.6261 24.43 29.4135 24.1508 29.1113L23.416 28.3207C22.9398 27.8083 22.2803 27.2846 20.9991 27.2846C19.7179 27.2846 19.0584 27.8083 18.5822 28.3207L17.8457 29.1131C17.5682 29.4135 17.3188 29.6261 16.6323 29.6261C15.9458 29.6261 15.6964 29.4135 15.4172 29.1113L14.6824 28.3207C14.2062 27.8083 13.5466 27.2846 12.2655 27.2846C10.9843 27.2846 10.3248 27.8083 9.84859 28.3207L9.1122 29.1131C8.8346 29.4135 8.58514 29.6261 7.89871 29.6261C7.21219 29.6261 6.96273 29.4135 6.68358 29.1113L6.16826 28.5569V25.9051H6.16785ZM6.16785 30.8143C6.58358 31.0768 7.12794 31.2666 7.89838 31.2666C9.18258 31.2666 9.84162 30.7408 10.3153 30.2281L11.05 29.4375C11.3288 29.1375 11.5793 28.9251 12.2651 28.9251C12.951 28.9251 13.2015 29.1375 13.4803 29.4375L14.2134 30.2263C14.6886 30.7407 15.3476 31.2666 16.6319 31.2666C17.9162 31.2666 18.5752 30.7407 19.0487 30.2281L19.7836 29.4375C20.0624 29.1375 20.3128 28.9251 20.9987 28.9251C21.6845 28.9251 21.935 29.1375 22.2138 29.4375L22.947 30.2263C23.4223 30.7407 24.0813 31.2666 25.3655 31.2666C26.6465 31.2666 27.3073 30.7417 27.7856 30.2271L28.5172 29.4375C28.796 29.1375 29.0464 28.9251 29.7323 28.9251C30.4176 28.9251 30.6699 29.1383 30.9489 29.4365L31.6806 30.2263C32.1559 30.7407 32.8152 31.2666 34.1015 31.2666C34.8706 31.2666 35.4144 31.0775 35.8296 30.8159V36.5111H32.1775C32.3505 36.1437 32.4477 35.7338 32.4477 35.3015C32.4477 33.7299 31.1691 32.4512 29.5975 32.4512C28.0258 32.4512 26.7472 33.7299 26.7472 35.3015C26.7472 35.7338 26.8444 36.1437 27.0174 36.5111H23.5782C23.7515 36.1431 23.8489 35.7323 23.8489 35.2992C23.8489 33.7276 22.5703 32.4489 20.9987 32.4489C19.427 32.4489 18.1484 33.7276 18.1484 35.2992C18.1484 35.7324 18.2459 36.1431 18.4192 36.5111H14.9817C15.155 36.1431 15.2525 35.7323 15.2525 35.2992C15.2525 33.7276 13.9739 32.4489 12.4022 32.4489C10.8306 32.4489 9.55196 33.7276 9.55196 35.2992C9.55196 35.7324 9.64942 36.1431 9.82275 36.5111H6.16785V30.8143ZM30.8072 35.3015C30.8072 35.9685 30.2646 36.5111 29.5976 36.5111C28.9306 36.5111 28.388 35.9685 28.388 35.3015C28.388 34.6345 28.9306 34.0919 29.5976 34.0919C30.2646 34.0919 30.8072 34.6345 30.8072 35.3015ZM22.2085 35.2991C22.2085 35.9673 21.6658 36.511 20.9989 36.511C20.3319 36.511 19.7892 35.9673 19.7892 35.2991C19.7892 34.6321 20.3319 34.0895 20.9989 34.0895C21.6658 34.0895 22.2085 34.6322 22.2085 35.2991ZM13.612 35.2991C13.612 35.9673 13.0694 36.511 12.4024 36.511C11.7354 36.511 11.1928 35.9673 11.1928 35.2991C11.1928 34.6321 11.7354 34.0895 12.4024 34.0895C13.0694 34.0895 13.612 34.6322 13.612 35.2991ZM36.3398 40.3594H5.65802L4.47891 38.1518H37.5204L36.3398 40.3594Z" fill="#D898FF"/>
    <path d="M20.9987 24.6094H21.0034C21.4564 24.6094 21.8214 24.242 21.8214 23.7891C21.8214 23.3361 21.4518 22.9688 20.9988 22.9688C20.5457 22.9688 20.1785 23.3361 20.1785 23.7891C20.1785 24.242 20.5456 24.6094 20.9987 24.6094Z" fill="#D898FF"/>
</svg>