<svg xmlns="http://www.w3.org/2000/svg" width="89" height="100" viewBox="0 0 89 100" fill="none">
    <g clip-path="url(#clip0_1_193)">
        <path d="M0 38.261L37.3946 2.72196C41.213 -0.912448 47.2167 -0.912448 51.0351 2.72196L88.4297 38.261V85.1786H0V38.261Z" fill="#EA5D5A"/>
        <path d="M88.422 100V38.261L42.5318 70.3573L88.422 100Z" fill="white"/>
        <path d="M88.422 100V38.261L46.9407 70.3573L88.422 100Z" fill="#FF9A98"/>
        <path d="M0 100V38.261L44.6327 70.3573L0 100Z" fill="white"/>
        <path d="M0 100V38.261L41.489 70.3573L0 100Z" fill="#FF9A98"/>
        <path d="M0 100L40.6303 57.3455C42.5778 55.2983 45.8442 55.2983 47.7918 57.3455L88.422 100H0Z" fill="white"/>
        <path d="M0 100L39.6335 62.337C42.2021 59.8988 46.2276 59.8988 48.7962 62.337L88.4297 100.008H0V100Z" fill="#FFC5C4"/>
        <path d="M59.3851 21.0139C48.6812 16.3827 44.6327 29.1185 44.6327 29.1185C44.6327 29.1185 40.5843 16.3903 29.8804 21.0139C19.1689 25.6374 36.8195 48.4943 44.6327 50.8099C52.446 48.4943 70.0966 25.6374 59.3851 21.0139Z" fill="white"/>
    </g>
    <defs>
        <clipPath id="clip0_1_193">
            <rect width="88.422" height="100" fill="white"/>
        </clipPath>
    </defs>
</svg>