<svg xmlns="http://www.w3.org/2000/svg" width="46" height="42" viewBox="0 0 46 42" fill="none">
    <path d="M5.19723 30.6866H3.69684V18.5852C5.20178 18.3186 6.3 17.0111 6.30182 15.4825V10.7184C6.30182 10.4172 6.05706 10.1725 5.75589 10.1725C5.45472 10.1725 5.20997 10.4172 5.20997 10.7184V15.4825C5.20906 16.4088 4.58943 17.2213 3.69684 17.4679V10.7184C3.69684 10.4172 3.45208 10.1725 3.15091 10.1725C2.84974 10.1725 2.60498 10.4172 2.60498 10.7184V17.467C1.71148 17.2213 1.09185 16.4088 1.09185 15.4825V10.7184C1.09185 10.4172 0.847097 10.1725 0.545927 10.1725C0.244757 10.1725 0 10.4172 0 10.7184V15.4825C0.000909879 17.012 1.09913 18.3195 2.60498 18.5852V30.6866H1.1055C0.804333 30.6866 0.559575 30.9314 0.559575 31.2326V39.4087C0.559575 40.84 1.71967 42.001 3.15182 42.001C4.58397 42.001 5.74406 40.8409 5.74406 39.4087V31.2326C5.74315 30.9314 5.4984 30.6866 5.19723 30.6866ZM4.6513 33.2434H3.3984C3.09723 33.2434 2.85247 33.4881 2.85247 33.7893C2.85247 34.0905 3.09723 34.3352 3.3984 34.3352H4.6513V39.4087C4.6513 40.2367 3.97981 40.9082 3.15091 40.9082C2.32292 40.9082 1.65143 40.2367 1.65143 39.4087V34.3352H1.98808C2.28925 34.3352 2.53401 34.0905 2.53401 33.7893C2.53401 33.4881 2.28925 33.2434 1.98808 33.2434H1.65143V31.7785H4.6513V33.2434Z" fill="#98FF9C"/>
    <path d="M41.8598 0.0309992L39.6042 6.33334e-05C39.3031 -0.00448606 39.0547 0.236632 39.051 0.538711C39.051 0.541441 39.051 0.544171 39.051 0.545991V20.9191C39.051 21.2203 39.2958 21.465 39.597 21.465H41.2083V30.3764C41.2093 31.5774 42.1837 32.5501 43.3848 32.5492C44.5849 32.5482 45.5576 31.5756 45.5576 30.3764V3.80609C45.5457 1.75613 43.9098 0.084682 41.8598 0.0309992ZM44.4657 20.3732H43.8424C43.5413 20.3741 43.2965 20.6188 43.2974 20.92C43.2983 21.2212 43.5413 21.465 43.8424 21.465H44.4657V30.3764C44.4666 30.9742 43.9817 31.46 43.3839 31.46C42.7861 31.4609 42.3002 30.976 42.3002 30.3782C42.3002 30.3773 42.3002 30.3764 42.3002 30.3764V21.4332C42.5841 21.3322 42.7324 21.0192 42.6305 20.7353C42.5531 20.5187 42.3484 20.3732 42.1182 20.3732H40.1429V1.0992L41.8407 1.12285C43.2965 1.16289 44.4575 2.35028 44.4657 3.80609V20.3732Z" fill="#98FF9C"/>
    <path d="M41.3013 2.76978C41.0001 2.76978 40.7554 3.01453 40.7554 3.3157V3.94079C40.7554 4.24196 41.0001 4.48672 41.3013 4.48672C41.6025 4.48672 41.8472 4.24196 41.8472 3.94079V3.3157C41.8472 3.01453 41.6025 2.76978 41.3013 2.76978Z" fill="#98FF9C"/>
    <path d="M41.3013 5.0708C41.0001 5.0708 40.7554 5.31556 40.7554 5.61673V11.1397C40.7554 11.4409 41.0001 11.6856 41.3013 11.6856C41.6025 11.6856 41.8472 11.4409 41.8472 11.1397V5.61673C41.8472 5.31556 41.6025 5.0708 41.3013 5.0708Z" fill="#98FF9C"/>
    <path d="M22.3339 7.65942C13.0167 7.65942 5.43652 15.2396 5.43652 24.5577C5.43652 33.8758 13.0167 41.455 22.3339 41.455C31.651 41.455 39.2321 33.8748 39.2321 24.5577C39.2321 15.2405 31.6519 7.65942 22.3339 7.65942ZM22.3339 40.3632C13.6191 40.3632 6.52838 33.2725 6.52838 24.5577C6.52838 15.8429 13.6191 8.75128 22.3339 8.75128C31.0487 8.75128 38.1403 15.842 38.1403 24.5577C38.1403 33.2734 31.0496 40.3632 22.3339 40.3632Z" fill="#98FF9C"/>
    <path d="M31.5547 14.9094C31.3363 14.701 30.9915 14.7092 30.7831 14.9267C30.5747 15.145 30.5829 15.4899 30.8004 15.6982C33.2298 18.003 34.6 21.2085 34.5873 24.5568C34.5873 31.3136 29.0907 36.8102 22.334 36.8102C15.5772 36.8102 10.0806 31.3145 10.0806 24.5577C10.0806 17.801 15.5772 12.3035 22.334 12.3035C24.5459 12.3017 26.7168 12.9004 28.6158 14.0341C28.8742 14.1888 29.2099 14.1041 29.3646 13.8457C29.5193 13.5873 29.4347 13.2516 29.1762 13.0969C27.1081 11.8613 24.7433 11.2098 22.334 11.2107C14.9758 11.2107 8.98877 17.1977 8.98877 24.5568C8.98877 31.9159 14.9758 37.902 22.334 37.902C29.6921 37.902 35.6791 31.915 35.6791 24.5568C35.6928 20.91 34.2006 17.4197 31.5547 14.9094Z" fill="#98FF9C"/>
    <path d="M15.084 18.386C15.236 18.386 15.3815 18.3223 15.4844 18.2113C15.6399 18.0439 15.7974 17.8847 15.9529 17.74C16.1759 17.5371 16.1913 17.1914 15.9884 16.9684C15.7855 16.7455 15.4398 16.73 15.2169 16.9329C15.2141 16.9357 15.2114 16.9375 15.2087 16.9402C15.034 17.1031 14.8565 17.2805 14.6837 17.468C14.4789 17.6891 14.4926 18.0348 14.7137 18.2395C14.8138 18.3332 14.9457 18.3851 15.084 18.386Z" fill="#98FF9C"/>
    <path d="M14.4117 18.6207C14.1606 18.4533 13.8221 18.5206 13.6547 18.7717C12.51 20.4841 11.9013 22.4986 11.9041 24.5577C11.9041 24.8588 12.1488 25.1036 12.45 25.1036C12.7512 25.1036 12.9959 24.8588 12.9959 24.5577C12.9932 22.7142 13.5382 20.9109 14.5627 19.3777C14.7301 19.1266 14.6628 18.7881 14.4117 18.6207Z" fill="#98FF9C"/>
</svg>