<svg xmlns="http://www.w3.org/2000/svg" width="113" height="98" viewBox="0 0 113 98" fill="none">
    <path d="M87.7704 18.6018C82.275 9.02089 71.9877 16.3805 71.9877 16.3805C71.9877 16.3805 76.1296 4.43095 65.389 1.87498C54.6484 -0.680995 55.0741 26.6544 59.6864 32.8391C66.9239 35.5119 93.2657 28.1827 87.7704 18.6018Z" fill="#EA5D5A"/>
    <path d="M47.5487 2.31482C36.9311 5.34751 41.6062 17.1018 41.6062 17.1018C41.6062 17.1018 30.9969 10.2138 25.9374 20.0245C20.8792 29.8404 49.2365 35.6853 56.3439 32.6932C60.6749 26.3116 58.1651 -0.723114 47.5487 2.31482Z" fill="#EA5D5A"/>
    <path d="M12.8124 31.9763V58.074C12.8124 59.6164 14.0647 60.8687 15.6071 60.8687H56.2531V26.8868C56.2531 25.8765 12.8124 31.9763 12.8124 31.9763Z" fill="#FFE076"/>
    <path d="M20.2881 47.6318C20.2881 48.1907 19.8366 48.6421 19.2777 48.6421C18.7188 48.6421 18.2673 48.1907 18.2673 47.6318C18.2673 47.0728 18.7188 46.6214 19.2777 46.6214C19.8366 46.6214 20.2881 47.0782 20.2881 47.6318Z" fill="#FCAF23"/>
    <path d="M25.2379 50.1631C25.5733 50.1631 25.8452 49.8912 25.8452 49.5558C25.8452 49.2204 25.5733 48.9485 25.2379 48.9485C24.9025 48.9485 24.6306 49.2204 24.6306 49.5558C24.6306 49.8912 24.9025 50.1631 25.2379 50.1631Z" fill="#FCAF23"/>
    <path d="M39.0768 47.2287C39.0768 47.7285 38.6683 48.137 38.1685 48.137C37.6687 48.137 37.2603 47.7285 37.2603 47.2287C37.2603 46.7289 37.6687 46.3204 38.1685 46.3204C38.6683 46.3204 39.0768 46.7289 39.0768 47.2287Z" fill="#FCAF23"/>
    <path d="M46.2514 49.5558C46.2514 49.7815 46.0686 49.9589 45.8483 49.9589C45.6226 49.9589 45.4452 49.7761 45.4452 49.5558C45.4452 49.3354 45.6279 49.1527 45.8483 49.1527C46.074 49.1473 46.2514 49.3301 46.2514 49.5558Z" fill="#FCAF23"/>
    <path d="M54.0335 47.132C54.3689 47.132 54.6408 46.8601 54.6408 46.5247C54.6408 46.1893 54.3689 45.9174 54.0335 45.9174C53.6981 45.9174 53.4262 46.1893 53.4262 46.5247C53.4262 46.8601 53.6981 47.132 54.0335 47.132Z" fill="#FCAF23"/>
    <path d="M52.8188 57.0261C53.264 57.0261 53.625 56.6651 53.625 56.2199C53.625 55.7747 53.264 55.4138 52.8188 55.4138C52.3736 55.4138 52.0127 55.7747 52.0127 56.2199C52.0127 56.6651 52.3736 57.0261 52.8188 57.0261Z" fill="#FCAF23"/>
    <path d="M45.5474 57.7355C45.5474 58.2353 45.139 58.6437 44.6392 58.6437C44.1394 58.6437 43.7309 58.2353 43.7309 57.7355C43.7309 57.2357 44.1394 56.8272 44.6392 56.8272C45.139 56.8272 45.5474 57.2357 45.5474 57.7355Z" fill="#FCAF23"/>
    <path d="M34.8364 57.6871C35.2549 57.6871 35.5942 57.3478 35.5942 56.9293C35.5942 56.5108 35.2549 56.1715 34.8364 56.1715C34.4179 56.1715 34.0786 56.5108 34.0786 56.9293C34.0786 57.3478 34.4179 57.6871 34.8364 57.6871Z" fill="#FCAF23"/>
    <path d="M25.34 59.149C25.7852 59.149 26.1461 58.788 26.1461 58.3428C26.1461 57.8976 25.7852 57.5367 25.34 57.5367C24.8947 57.5367 24.5338 57.8976 24.5338 58.3428C24.5338 58.788 24.8947 59.149 25.34 59.149Z" fill="#FCAF23"/>
    <path d="M16.956 56.9294C17.793 56.9294 18.4715 56.2508 18.4715 55.4138C18.4715 54.5768 17.793 53.8983 16.956 53.8983C16.119 53.8983 15.4404 54.5768 15.4404 55.4138C15.4404 56.2508 16.119 56.9294 16.956 56.9294Z" fill="#FCAF23"/>
    <path d="M99.6991 31.9763V58.074C99.6991 59.6164 98.4468 60.8687 96.9044 60.8687H56.2584V26.8868C56.253 25.8765 99.6991 31.9763 99.6991 31.9763Z" fill="#FFE076"/>
    <path d="M56.253 26.5161C17.257 26.5161 11.3936 26.9191 11.3936 31.971C11.3936 37.0228 11.3936 45.912 11.3936 45.912C19.8796 46.5193 21.9004 41.6663 21.9004 41.6663C21.9004 41.6663 24.3242 47.5243 29.9834 47.1212C35.6425 46.7181 39.0767 41.6663 39.0767 41.6663C39.0767 41.6663 40.2913 45.5035 47.1597 46.1108C54.0281 46.7181 56.253 40.8547 56.253 40.8547C56.253 40.8547 58.478 46.7127 65.3464 46.1108C72.2148 45.5035 73.4294 41.6663 73.4294 41.6663C73.4294 41.6663 76.8636 46.7181 82.5227 47.1212C88.1819 47.5243 90.6057 41.6663 90.6057 41.6663C90.6057 41.6663 92.6265 46.5139 101.113 45.912C101.113 45.912 101.113 37.0228 101.113 31.971C101.113 26.9245 95.2545 26.5161 56.253 26.5161Z" fill="#FF9A98"/>
    <path d="M91.7182 51.1681C87.4725 53.694 87.1715 53.7961 81.4156 51.066C75.6544 48.3358 71.6183 50.1093 68.3829 52.0011C65.1476 53.8929 62.2186 48.54 56.2584 48.54C50.2983 48.54 47.3693 53.8929 44.134 52.0011C40.8986 50.1093 36.8571 48.3358 31.1012 51.066C25.3454 53.7961 25.039 53.694 20.7987 51.1681C16.553 48.6422 12.8178 49.8567 12.8178 49.8567V51.4744C17.3645 50.3619 20.2935 53.0921 23.6256 54.9946C26.9576 56.9025 30.193 52.4848 35.5458 51.77C40.8986 51.0552 40.0925 53.3931 45.3432 54.1992C50.5939 55.0053 51.3033 50.6629 56.2531 50.6629C61.2028 50.6629 61.9122 55.0053 67.1629 54.1992C72.419 53.3931 71.6075 51.0552 76.9603 51.77C82.3132 52.4848 85.5485 56.9025 88.8806 54.9946C92.2127 53.0867 95.147 50.3619 99.6883 51.4744V49.8567C99.6991 49.8567 95.9586 48.6422 91.7182 51.1681Z" fill="#FCAF23"/>
    <path d="M92.2234 47.6318C92.2234 48.1907 92.6749 48.6421 93.2338 48.6421C93.7927 48.6421 94.2442 48.1907 94.2442 47.6318C94.2442 47.0728 93.7927 46.6214 93.2338 46.6214C92.6749 46.6214 92.2234 47.0782 92.2234 47.6318Z" fill="#FCAF23"/>
    <path d="M87.2683 50.1631C87.6037 50.1631 87.8755 49.8912 87.8755 49.5558C87.8755 49.2204 87.6037 48.9485 87.2683 48.9485C86.9329 48.9485 86.6609 49.2204 86.6609 49.5558C86.6609 49.8912 86.9329 50.1631 87.2683 50.1631Z" fill="#FCAF23"/>
    <path d="M73.4294 47.2287C73.4294 47.7285 73.8379 48.137 74.3377 48.137C74.8375 48.137 75.2459 47.7285 75.2459 47.2287C75.2459 46.7289 74.8375 46.3204 74.3377 46.3204C73.8379 46.3204 73.4294 46.7289 73.4294 47.2287Z" fill="#FCAF23"/>
    <path d="M66.2546 49.5558C66.2546 49.7815 66.4374 49.9589 66.6577 49.9589C66.8781 49.9589 67.0608 49.7761 67.0608 49.5558C67.0608 49.3354 66.8781 49.1527 66.6577 49.1527C66.4374 49.1527 66.2546 49.3301 66.2546 49.5558Z" fill="#FCAF23"/>
    <path d="M58.478 47.132C58.8134 47.132 59.0853 46.8601 59.0853 46.5247C59.0853 46.1893 58.8134 45.9174 58.478 45.9174C58.1426 45.9174 57.8707 46.1893 57.8707 46.5247C57.8707 46.8601 58.1426 47.132 58.478 47.132Z" fill="#FCAF23"/>
    <path d="M59.6872 57.0261C60.1324 57.0261 60.4933 56.6651 60.4933 56.2199C60.4933 55.7747 60.1324 55.4138 59.6872 55.4138C59.242 55.4138 58.881 55.7747 58.881 56.2199C58.881 56.6651 59.242 57.0261 59.6872 57.0261Z" fill="#FCAF23"/>
    <path d="M66.9641 57.7355C66.9641 58.2353 67.3726 58.6437 67.8724 58.6437C68.3722 58.6437 68.7806 58.2353 68.7806 57.7355C68.7806 57.2357 68.3722 56.8272 67.8724 56.8272C67.3726 56.8272 66.9641 57.2357 66.9641 57.7355Z" fill="#FCAF23"/>
    <path d="M77.6751 57.6871C78.0937 57.6871 78.4329 57.3478 78.4329 56.9293C78.4329 56.5108 78.0937 56.1715 77.6751 56.1715C77.2566 56.1715 76.9174 56.5108 76.9174 56.9293C76.9174 57.3478 77.2566 57.6871 77.6751 57.6871Z" fill="#FCAF23"/>
    <path d="M87.1715 59.149C87.6167 59.149 87.9776 58.788 87.9776 58.3428C87.9776 57.8976 87.6167 57.5367 87.1715 57.5367C86.7263 57.5367 86.3654 57.8976 86.3654 58.3428C86.3654 58.788 86.7263 59.149 87.1715 59.149Z" fill="#FCAF23"/>
    <path d="M95.5554 56.9294C96.3925 56.9294 97.071 56.2508 97.071 55.4138C97.071 54.5768 96.3925 53.8983 95.5554 53.8983C94.7184 53.8983 94.0399 54.5768 94.0399 55.4138C94.0399 56.2508 94.7184 56.9294 95.5554 56.9294Z" fill="#FCAF23"/>
    <path d="M1.7735 61.7663V94.4959C1.7735 96.4307 3.3428 98 5.27756 98H56.253V54.9248C56.253 53.6564 1.7735 61.7663 1.7735 61.7663Z" fill="#FFE076"/>
    <path d="M56.253 82.5434V85.2037C50.0457 85.2037 49.1589 90.6533 42.57 89.6375C35.9811 88.6218 36.9968 85.6928 30.2789 86.5903C23.5664 87.4878 19.5088 93.0287 15.3275 90.6372C11.1463 88.2456 7.47028 84.8275 1.76813 86.2195V84.1933C1.76813 84.1933 6.45454 82.6724 11.7751 85.8379C17.0957 89.0034 17.4773 89.1323 24.7004 85.7089C31.9234 82.2855 36.9914 84.5104 41.0437 86.8859C45.1067 89.2613 48.7773 82.5434 56.253 82.5434Z" fill="#FCAF23"/>
    <path d="M9.88336 82.6724C10.5838 82.6724 11.1517 82.1046 11.1517 81.4041C11.1517 80.7036 10.5838 80.1357 9.88336 80.1357C9.18288 80.1357 8.61502 80.7036 8.61502 81.4041C8.61502 82.1046 9.18288 82.6724 9.88336 82.6724Z" fill="#FCAF23"/>
    <path d="M17.3591 84.5695C17.7776 84.5695 18.1169 84.2302 18.1169 83.8117C18.1169 83.3932 17.7776 83.054 17.3591 83.054C16.9406 83.054 16.6013 83.3932 16.6013 83.8117C16.6013 84.2302 16.9406 84.5695 17.3591 84.5695Z" fill="#FCAF23"/>
    <path d="M34.7181 80.8989C34.7181 81.5277 34.2075 82.0382 33.5787 82.0382C32.9499 82.0382 32.4394 81.5277 32.4394 80.8989C32.4394 80.2701 32.9499 79.7595 33.5787 79.7595C34.2075 79.7595 34.7181 80.2701 34.7181 80.8989Z" fill="#FCAF23"/>
    <path d="M43.2042 84.3169C43.4832 84.3169 43.7094 84.0907 43.7094 83.8117C43.7094 83.5327 43.4832 83.3065 43.2042 83.3065C42.9252 83.3065 42.699 83.5327 42.699 83.8117C42.699 84.0907 42.9252 84.3169 43.2042 84.3169Z" fill="#FCAF23"/>
    <path d="M53.4691 80.7699C53.8876 80.7699 54.2269 80.4306 54.2269 80.0121C54.2269 79.5936 53.8876 79.2543 53.4691 79.2543C53.0506 79.2543 52.7113 79.5936 52.7113 80.0121C52.7113 80.4306 53.0506 80.7699 53.4691 80.7699Z" fill="#FCAF23"/>
    <path d="M51.9482 93.1899C52.5092 93.1899 52.9639 92.7352 52.9639 92.1742C52.9639 91.6132 52.5092 91.1584 51.9482 91.1584C51.3872 91.1584 50.9324 91.6132 50.9324 92.1742C50.9324 92.7352 51.3872 93.1899 51.9482 93.1899Z" fill="#FCAF23"/>
    <path d="M42.8226 94.0767C42.8226 94.7055 42.3121 95.2161 41.6833 95.2161C41.0545 95.2161 40.5439 94.7055 40.5439 94.0767C40.5439 93.4479 41.0545 92.9374 41.6833 92.9374C42.3121 92.9374 42.8226 93.4426 42.8226 94.0767Z" fill="#FCAF23"/>
    <path d="M29.3922 94.0122C29.9176 94.0122 30.3435 93.5863 30.3435 93.061C30.3435 92.5356 29.9176 92.1097 29.3922 92.1097C28.8668 92.1097 28.4409 92.5356 28.4409 93.061C28.4409 93.5863 28.8668 94.0122 29.3922 94.0122Z" fill="#FCAF23"/>
    <path d="M17.4827 95.8503C18.0437 95.8503 18.4985 95.3955 18.4985 94.8345C18.4985 94.2735 18.0437 93.8188 17.4827 93.8188C16.9217 93.8188 16.467 94.2735 16.467 94.8345C16.467 95.3955 16.9217 95.8503 17.4827 95.8503Z" fill="#FCAF23"/>
    <path d="M8.86767 91.1585C8.86767 92.2065 8.01853 93.061 6.96516 93.061C5.9118 93.061 5.06265 92.2119 5.06265 91.1585C5.06265 90.1051 5.9118 89.256 6.96516 89.256C8.01853 89.256 8.86767 90.1105 8.86767 91.1585Z" fill="#FCAF23"/>
    <path d="M110.733 61.7663V94.4959C110.733 96.4307 109.163 98 107.228 98H56.2531V54.9248C56.2531 53.6564 110.733 61.7663 110.733 61.7663Z" fill="#FFE076"/>
    <path d="M56.253 54.9248C7.3467 54.9248 0 55.43 0 61.7663C0 68.1026 0 79.249 0 79.249C10.6412 80.0068 13.1778 73.9284 13.1778 73.9284C13.1778 73.9284 16.2197 81.2751 23.3138 80.7699C30.4079 80.2647 34.7181 73.9284 34.7181 73.9284C34.7181 73.9284 36.239 78.7438 44.8541 79.5016C53.4691 80.2594 56.2584 72.9127 56.2584 72.9127C56.2584 72.9127 59.0477 80.2594 67.6627 79.5016C76.2777 78.7438 77.7987 73.9284 77.7987 73.9284C77.7987 73.9284 82.1089 80.2647 89.203 80.7699C96.2971 81.2751 99.3389 73.9284 99.3389 73.9284C99.3389 73.9284 101.87 80.0121 112.517 79.249C112.517 79.249 112.517 68.0973 112.517 61.7663C112.506 55.43 105.159 54.9248 56.253 54.9248Z" fill="#FF9A98"/>
    <path d="M56.2531 82.5434V85.2037C62.4604 85.2037 63.3472 90.6533 69.9361 89.6375C76.525 88.6218 75.5092 85.6928 82.2271 86.5903C88.9397 87.4878 92.9973 93.0287 97.1785 90.6372C101.36 88.2456 105.036 84.8275 110.738 86.2195V84.1933C110.738 84.1933 106.052 82.6724 100.731 85.8379C95.4104 89.0034 95.0288 89.1323 87.8057 85.7089C80.5826 82.2855 75.5146 84.5104 71.4624 86.8859C67.4048 89.2613 63.7287 82.5434 56.2531 82.5434Z" fill="#FCAF23"/>
    <path d="M102.628 82.6724C103.328 82.6724 103.896 82.1046 103.896 81.4041C103.896 80.7036 103.328 80.1357 102.628 80.1357C101.928 80.1357 101.36 80.7036 101.36 81.4041C101.36 82.1046 101.928 82.6724 102.628 82.6724Z" fill="#FCAF23"/>
    <path d="M95.1524 84.5695C95.5709 84.5695 95.9102 84.2302 95.9102 83.8117C95.9102 83.3932 95.5709 83.054 95.1524 83.054C94.7339 83.054 94.3946 83.3932 94.3946 83.8117C94.3946 84.2302 94.7339 84.5695 95.1524 84.5695Z" fill="#FCAF23"/>
    <path d="M77.7933 80.8989C77.7933 81.5277 78.3039 82.0382 78.9327 82.0382C79.5614 82.0382 80.072 81.5277 80.072 80.8989C80.072 80.2701 79.5614 79.7595 78.9327 79.7595C78.3039 79.7595 77.7933 80.2701 77.7933 80.8989Z" fill="#FCAF23"/>
    <path d="M69.3019 84.3169C69.5809 84.3169 69.8071 84.0907 69.8071 83.8117C69.8071 83.5327 69.5809 83.3065 69.3019 83.3065C69.0229 83.3065 68.7967 83.5327 68.7967 83.8117C68.7967 84.0907 69.0229 84.3169 69.3019 84.3169Z" fill="#FCAF23"/>
    <path d="M59.0423 80.7699C59.4608 80.7699 59.8001 80.4306 59.8001 80.0121C59.8001 79.5936 59.4608 79.2543 59.0423 79.2543C58.6238 79.2543 58.2845 79.5936 58.2845 80.0121C58.2845 80.4306 58.6238 80.7699 59.0423 80.7699Z" fill="#FCAF23"/>
    <path d="M60.5632 93.1899C61.1242 93.1899 61.5789 92.7352 61.5789 92.1742C61.5789 91.6132 61.1242 91.1584 60.5632 91.1584C60.0022 91.1584 59.5475 91.6132 59.5475 92.1742C59.5475 92.7352 60.0022 93.1899 60.5632 93.1899Z" fill="#FCAF23"/>
    <path d="M69.6835 94.0767C69.6835 94.7055 70.1941 95.2161 70.8229 95.2161C71.4516 95.2161 71.9622 94.7055 71.9622 94.0767C71.9622 93.4479 71.4516 92.9374 70.8229 92.9374C70.1941 92.9374 69.6835 93.4426 69.6835 94.0767Z" fill="#FCAF23"/>
    <path d="M83.1139 94.0122C83.6393 94.0122 84.0652 93.5863 84.0652 93.061C84.0652 92.5356 83.6393 92.1097 83.1139 92.1097C82.5886 92.1097 82.1627 92.5356 82.1627 93.061C82.1627 93.5863 82.5886 94.0122 83.1139 94.0122Z" fill="#FCAF23"/>
    <path d="M95.0234 95.8503C95.5844 95.8503 96.0392 95.3955 96.0392 94.8345C96.0392 94.2735 95.5844 93.8188 95.0234 93.8188C94.4624 93.8188 94.0077 94.2735 94.0077 94.8345C94.0077 95.3955 94.4624 95.8503 95.0234 95.8503Z" fill="#FCAF23"/>
    <path d="M103.638 91.1585C103.638 92.2065 104.488 93.061 105.541 93.061C106.594 93.061 107.443 92.2119 107.443 91.1585C107.443 90.1051 106.594 89.256 105.541 89.256C104.488 89.256 103.638 90.1105 103.638 91.1585Z" fill="#FCAF23"/>
</svg>