<svg xmlns="http://www.w3.org/2000/svg" width="49" height="48" viewBox="0 0 49 48" fill="none">
    <path d="M18.4669 21.7622C19.3321 20.8282 20.5494 20.2961 21.8203 20.2961H27.1797C28.4545 20.2961 29.668 20.8282 30.5332 21.7622C30.7514 21.2799 31.0155 20.8243 31.3256 20.3994C30.3724 19.5151 29.1627 18.96 27.8726 18.8107C29.5953 16.9465 29.4804 14.0409 27.6161 12.3182C25.7518 10.5956 22.8463 10.7104 21.1236 12.5747C19.4967 14.3357 19.4967 17.0498 21.1236 18.8069C19.8335 18.9562 18.6239 19.5113 17.6707 20.3956C17.9846 20.8243 18.2487 21.2799 18.4669 21.7622ZM24.5 12.6398C26.1921 12.6398 27.5625 14.0103 27.5625 15.7023C27.5625 17.3943 26.1921 18.7648 24.5 18.7648C22.808 18.7648 21.4375 17.3943 21.4375 15.7023C21.4414 14.0141 22.808 12.6436 24.5 12.6398Z" fill="#98FF9C"/>
    <path d="M26.567 10.6645C27.4322 9.73039 28.6495 9.19828 29.9204 9.19828H35.2798C36.5546 9.19828 37.7681 9.73039 38.6333 10.6645C38.8515 10.1821 39.1156 9.72656 39.4257 9.30164C38.4725 8.41734 37.2628 7.86226 35.9727 7.71297C37.6954 5.84867 37.5805 2.94312 35.7162 1.22047C33.8519 -0.502189 30.9464 -0.387345 29.2237 1.47695C27.5968 3.23789 27.5968 5.95203 29.2237 7.70914C27.9336 7.85844 26.724 8.41352 25.7708 9.29781C26.0847 9.72656 26.3526 10.1859 26.567 10.6645ZM32.6001 1.54586C34.2922 1.54586 35.6626 2.91633 35.6626 4.60836C35.6626 6.30039 34.2922 7.67086 32.6001 7.67086C30.9081 7.67086 29.5376 6.30039 29.5376 4.60836C29.5415 2.91633 30.9119 1.54586 32.6001 1.54586Z" fill="#98FF9C"/>
    <path d="M9.66209 10.6645C10.5273 9.73039 11.7446 9.19828 13.0155 9.19828H18.3749C19.6497 9.19828 20.8632 9.73039 21.7283 10.6645C21.9465 10.1821 22.2107 9.72656 22.5208 9.30164C21.5676 8.41734 20.3579 7.86226 19.0678 7.71297C20.7905 5.84867 20.6756 2.94312 18.8113 1.22047C16.947 -0.502189 14.0415 -0.387345 12.3188 1.47695C10.6919 3.23789 10.6919 5.95203 12.3188 7.70914C11.0287 7.85844 9.81905 8.41352 8.86584 9.29781C9.17975 9.72656 9.44389 10.1859 9.66209 10.6645ZM15.6952 1.54586C17.3873 1.54586 18.7577 2.91633 18.7577 4.60836C18.7577 6.30039 17.3873 7.67086 15.6952 7.67086C14.0032 7.67086 12.6327 6.30039 12.6327 4.60836C12.6365 2.91633 14.0032 1.54586 15.6952 1.54586Z" fill="#98FF9C"/>
    <path d="M43.5717 18.8069C45.2905 16.9426 45.1756 14.0371 43.3113 12.3144C41.447 10.5918 38.5415 10.7104 36.8188 12.5747C35.1957 14.3357 35.1957 17.046 36.8188 18.8069C33.9286 19.14 31.67 21.4598 31.4174 24.3577C31.9877 23.5729 32.7381 22.9336 33.6032 22.4934C34.4377 21.1306 35.9192 20.2999 37.5156 20.296H42.8749C45.4092 20.2999 47.4649 22.3556 47.4687 24.8898V31.7804H45.1718C45.1718 31.7804 44.41 31.6694 44.7431 32.0446C44.789 32.0943 44.8349 32.1479 44.8809 32.1977C44.9766 32.3087 45.0723 32.4235 45.1603 32.5422C45.3479 32.7872 45.5202 33.0437 45.6733 33.3117H47.4687C48.3147 33.3117 48.9999 32.6264 48.9999 31.7804V24.8898C48.9961 21.7775 46.661 19.1629 43.5717 18.8069ZM40.1952 12.6398C41.8873 12.6398 43.2577 14.0103 43.2577 15.7023C43.2577 17.3943 41.8873 18.7648 40.1952 18.7648C38.5032 18.7648 37.1327 17.3943 37.1327 15.7023C37.1366 14.0141 38.5032 12.6436 40.1952 12.6398Z" fill="#98FF9C"/>
    <path d="M4.11906 32.1976C4.165 32.144 4.21094 32.0942 4.25687 32.0445C4.63586 31.765 3.82812 31.7803 3.82812 31.7803H1.53125V24.8897C1.53508 22.3555 3.59078 20.2998 6.125 20.296H11.4844C13.0807 20.2998 14.5622 21.1305 15.3967 22.4933C16.2619 22.9335 17.0122 23.5728 17.5826 24.3576C17.3261 21.4597 15.0713 19.1399 12.1811 18.8068C13.9037 16.9425 13.7851 14.037 11.9246 12.3143C10.0641 10.5917 7.15477 10.7103 5.43211 12.5708C3.80898 14.3317 3.80516 17.0421 5.43211 18.803C2.33898 19.1628 0.00382812 21.7775 0 24.8897V31.7803C0 32.6264 0.685234 33.3116 1.53125 33.3116H3.32664C3.48359 33.0436 3.65203 32.7871 3.83961 32.5421C3.93148 32.4235 4.02336 32.3125 4.11906 32.1976ZM8.80469 12.6397C10.4967 12.6397 11.8672 14.0102 11.8672 15.7022C11.8672 17.3942 10.4967 18.7647 8.80469 18.7647C7.11266 18.7647 5.74219 17.3942 5.74219 15.7022C5.74602 14.014 7.11266 12.6435 8.80469 12.6397Z" fill="#98FF9C"/>
    <path d="M39.7436 31.0568C41.4662 29.1925 41.3476 26.287 39.4833 24.5643C37.619 22.8417 34.7134 22.9603 32.9908 24.8246C31.3677 26.5856 31.3677 29.2959 32.9908 31.0568C32.1563 31.1525 31.3523 31.4205 30.625 31.8416C31.1571 32.1095 31.6586 32.4426 32.1141 32.8292C32.6156 32.6417 33.1477 32.546 33.6837 32.546H39.043C41.5773 32.5498 43.633 34.6055 43.6368 37.1397V44.0303H34.8359V45.5616H43.6406C44.4866 45.5616 45.1719 44.8763 45.1719 44.0303V37.1397C45.168 34.0274 42.8329 31.4128 39.7436 31.0568ZM36.3672 24.8897C38.0592 24.8897 39.4297 26.2602 39.4297 27.9522C39.4297 29.6442 38.0592 31.0147 36.3672 31.0147C34.6752 31.0147 33.3047 29.6442 33.3047 27.9522C33.3085 26.264 34.6752 24.8935 36.3672 24.8897Z" fill="#98FF9C"/>
    <path d="M9.95312 32.546H15.3125C15.8484 32.546 16.3805 32.6417 16.882 32.8292C17.3376 32.4426 17.8391 32.1134 18.3712 31.8416C17.6438 31.4205 16.8399 31.1525 16.0054 31.0568C17.728 29.1925 17.6094 26.287 15.7451 24.5643C13.8808 22.8417 10.9752 22.9603 9.25258 24.8246C7.62945 26.5856 7.62945 29.2959 9.25258 31.0568C6.16711 31.4128 3.83195 34.0274 3.82812 37.1397V44.0303C3.82812 44.8763 4.51336 45.5616 5.35937 45.5616H14.1641V44.0303H5.35937V37.1397C5.3632 34.6055 7.41891 32.5498 9.95312 32.546ZM12.6328 24.8897C14.3248 24.8897 15.6953 26.2602 15.6953 27.9522C15.6953 29.6442 14.3248 31.0147 12.6328 31.0147C10.9408 31.0147 9.57031 29.6442 9.57031 27.9522C9.57414 26.264 10.9408 24.8935 12.6328 24.8897Z" fill="#98FF9C"/>
    <path d="M27.8763 32.5881C29.5951 30.7238 29.4803 27.8183 27.616 26.0956C25.7517 24.3768 22.8461 24.4917 21.1235 26.356C19.5003 28.1169 19.5003 30.8272 21.1235 32.5881C18.0342 32.9442 15.699 35.5588 15.6952 38.671V45.5617C15.6952 46.4077 16.3804 47.0929 17.2264 47.0929H31.7733C32.6193 47.0929 33.3046 46.4077 33.3046 45.5617V38.671C33.3007 35.5588 30.9656 32.9442 27.8763 32.5881ZM24.4999 26.421C26.1919 26.421 27.5624 27.7915 27.5624 29.4835C27.5624 31.1756 26.1919 32.546 24.4999 32.546C22.8078 32.546 21.4374 31.1756 21.4374 29.4835C21.4412 27.7953 22.8078 26.4249 24.4999 26.421ZM31.7733 45.5617H17.2264V38.671C17.2303 36.1368 19.286 34.0811 21.8202 34.0773H27.1796C29.7138 34.0811 31.7695 36.1368 31.7733 38.671V45.5617Z" fill="#98FF9C"/>
</svg>