<svg xmlns="http://www.w3.org/2000/svg" width="49" height="36" viewBox="0 0 49 36" fill="none">
    <path d="M18.4674 10.6648C19.3326 9.73066 20.55 9.19854 21.8209 9.19854H27.1805C28.4553 9.19854 29.6688 9.73066 30.534 10.6648C30.7522 10.1824 31.0164 9.72683 31.3264 9.3019C30.3732 8.41758 29.1635 7.86248 27.8734 7.71318C29.5961 5.84883 29.4812 2.94321 27.6169 1.2205C25.7525 -0.502203 22.8469 -0.387356 21.1242 1.47699C19.4972 3.23798 19.4972 5.9522 21.1242 7.70935C19.8341 7.85866 18.6244 8.41375 17.6711 9.29807C17.9851 9.72683 18.2492 10.1862 18.4674 10.6648ZM24.5007 1.5459C26.1928 1.5459 27.5633 2.91641 27.5633 4.60849C27.5633 6.30057 26.1928 7.67107 24.5007 7.67107C22.8086 7.67107 21.4381 6.30057 21.4381 4.60849C21.442 2.91641 22.8086 1.5459 24.5007 1.5459Z" fill="#FF9A98"/>
    <path d="M43.573 7.71313C45.2918 5.84878 45.177 2.94315 43.3127 1.22045C41.4483 -0.502258 38.5427 -0.383583 36.82 1.48077C35.1968 3.24175 35.1968 5.95214 36.82 7.71313C33.9297 8.04618 31.671 10.3661 31.4183 13.2641C31.9887 12.4793 32.7391 11.84 33.6043 11.3997C34.4388 10.0369 35.9203 9.20614 37.5167 9.20231H42.8762C45.4105 9.20614 47.4663 11.2619 47.4701 13.7962V20.687H45.1732C45.1732 20.687 44.4114 20.576 44.7444 20.9512C44.7903 21.0009 44.8363 21.0545 44.8822 21.1043C44.9779 21.2153 45.0736 21.3301 45.1617 21.4488C45.3493 21.6938 45.5215 21.9503 45.6747 22.2183H47.4701C48.3162 22.2183 49.0014 21.533 49.0014 20.687V13.7962C48.9976 10.6838 46.6624 8.06915 43.573 7.71313ZM40.1965 1.54585C41.8885 1.54585 43.2591 2.91635 43.2591 4.60843C43.2591 6.30051 41.8885 7.67102 40.1965 7.67102C38.5044 7.67102 37.1339 6.30051 37.1339 4.60843C37.1377 2.91635 38.5044 1.54585 40.1965 1.54585Z" fill="#FF9A98"/>
    <path d="M4.11918 21.1043C4.16512 21.0507 4.21105 21.0009 4.25699 20.9512C4.63599 20.6717 3.82823 20.687 3.82823 20.687H1.53129V13.7962C1.53512 11.2619 3.59088 9.20614 6.12517 9.20231H11.4847C13.0811 9.20614 14.5626 10.0369 15.3971 11.3997C16.2623 11.84 17.0127 12.4793 17.5831 13.2641C17.3266 10.3661 15.0717 8.04618 12.1814 7.71313C13.9041 5.84878 13.7855 2.94315 11.9249 1.22045C10.0644 -0.502258 7.15114 -0.383583 5.42843 1.48077C3.80526 3.24175 3.80143 5.95214 5.42843 7.71313C2.33905 8.06915 0.00382823 10.6838 0 13.7962V20.687C0 21.533 0.685253 22.2183 1.53129 22.2183H3.32673C3.48369 21.9503 3.65213 21.6938 3.83972 21.4488C3.93159 21.3301 4.02347 21.2153 4.11918 21.1043ZM8.80493 1.54585C10.497 1.54585 11.8675 2.91635 11.8675 4.60843C11.8675 6.30051 10.497 7.67102 8.80493 7.67102C7.11285 7.67102 5.74235 6.30051 5.74235 4.60843C5.74618 2.91635 7.11285 1.54585 8.80493 1.54585Z" fill="#FF9A98"/>
    <path d="M39.7447 19.9635C41.4674 18.0992 41.3487 15.1936 39.4844 13.4709C37.62 11.752 34.7144 11.8668 32.9917 13.7312C31.3685 15.4922 31.3685 18.2026 32.9917 19.9635C32.1571 20.0592 31.3532 20.3272 30.6259 20.7483C31.158 21.0163 31.6595 21.3494 32.115 21.736C32.6165 21.5484 33.1487 21.4527 33.6846 21.4527H39.0441C41.5784 21.4566 43.6342 23.5123 43.638 26.0466V32.9374H34.8369V34.4687H43.6418C44.4879 34.4687 45.1731 33.7835 45.1731 32.9374V26.0466C45.1693 22.9343 42.8341 20.3196 39.7447 19.9635ZM36.3682 13.7963C38.0603 13.7963 39.4308 15.1668 39.4308 16.8588C39.4308 18.5509 38.0603 19.9214 36.3682 19.9214C34.6761 19.9214 33.3056 18.5509 33.3056 16.8588C33.3094 15.1668 34.6761 13.7963 36.3682 13.7963Z" fill="#FF9A98"/>
    <path d="M9.95342 21.4526H15.3129C15.8489 21.4526 16.381 21.5484 16.8825 21.7359C17.3381 21.3493 17.8396 21.0201 18.3717 20.7483C17.6443 20.3271 16.8404 20.0592 16.0059 19.9635C17.7286 18.0991 17.6099 15.1935 15.7455 13.4708C13.8812 11.7481 10.9756 11.8668 9.25285 13.7311C7.62968 15.4921 7.62968 18.2025 9.25285 19.9635C6.1673 20.3195 3.83208 22.9342 3.82825 26.0465V32.9373C3.82825 33.7834 4.5135 34.4686 5.35954 34.4686H14.1645V32.9373H5.35954V26.0465C5.36337 23.5084 7.41913 21.4565 9.95342 21.4526ZM12.6332 13.7962C14.3253 13.7962 15.6958 15.1667 15.6958 16.8588C15.6958 18.5508 14.3253 19.9214 12.6332 19.9214C10.9411 19.9214 9.5706 18.5508 9.5706 16.8588C9.57442 15.1667 10.9411 13.7962 12.6332 13.7962Z" fill="#FF9A98"/>
    <path d="M27.8771 21.4948C29.596 19.6304 29.4811 16.7248 27.6168 15.0021C25.7524 13.2832 22.8468 13.3981 21.1241 15.2624C19.5009 17.0234 19.5009 19.7338 21.1241 21.4948C18.0347 21.8508 15.6995 24.4655 15.6957 27.5779V34.4687C15.6957 35.3147 16.3809 36 17.227 36H31.7743C32.6203 36 33.3055 35.3147 33.3055 34.4687V27.5779C33.3017 24.4655 30.9665 21.8508 27.8771 21.4948ZM24.5006 15.3275C26.1927 15.3275 27.5632 16.698 27.5632 18.3901C27.5632 20.0822 26.1927 21.4527 24.5006 21.4527C22.8085 21.4527 21.438 20.0822 21.438 18.3901C21.4419 16.698 22.8085 15.3275 24.5006 15.3275ZM31.7743 34.4687H17.227V27.5779C17.2308 25.0436 19.2866 22.9878 21.8208 22.984H27.1804C29.7147 22.9878 31.7704 25.0436 31.7743 27.5779V34.4687Z" fill="#FF9A98"/>
</svg>