<svg xmlns="http://www.w3.org/2000/svg" width="44" height="42" viewBox="0 0 44 42" fill="none">
    <path d="M9.39199 31.1383C8.28287 31.1383 6.36081 30.4307 4.37752 29.2919C3.50427 28.7904 -0.805294 26.2058 0.132781 24.5709C0.279524 24.3152 0.60722 24.01 1.33463 24.01C2.44376 24.01 4.36582 24.7176 6.3491 25.8565C7.64368 26.6001 8.79422 27.4301 9.58735 28.1936C9.96546 28.5573 11.1169 29.6655 10.5929 30.5775C10.4471 30.8331 10.1194 31.1383 9.39199 31.1383ZM1.34364 25.2695C1.65513 25.7926 2.83087 26.9503 5.00501 28.1981C7.0171 29.3531 8.65108 29.8735 9.38299 29.8771C9.0715 29.354 7.89575 28.1963 5.72162 26.9485C3.70953 25.7935 2.07555 25.274 1.34364 25.2695Z" fill="#76A9FF"/>
    <path d="M6.0339 27.034C5.92767 27.034 5.81964 27.007 5.72061 26.9503C5.41902 26.7774 5.31459 26.3921 5.48834 26.0896L9.07409 19.8436C9.24784 19.542 9.63316 19.4376 9.93475 19.6104C10.2363 19.7842 10.3408 20.1686 10.1679 20.4711L6.58216 26.7171C6.46513 26.9197 6.25267 27.034 6.0339 27.034Z" fill="#76A9FF"/>
    <path d="M13.2 21.745C11.8397 21.745 10.4929 21.3849 9.30636 20.7034C7.49233 19.6618 6.19235 17.9756 5.64589 15.9563C5.09943 13.937 5.37221 11.8259 6.41381 10.0109L11.7929 0.645492C11.7938 0.644592 11.7938 0.643692 11.7947 0.642791C11.9684 0.341203 12.3538 0.236773 12.6553 0.410523C12.9452 0.577072 13.0524 0.938978 12.9074 1.23426C12.9209 1.38911 13.1685 1.92927 14.2038 2.87184C15.168 3.7496 16.5175 4.70388 18.0047 5.55733C20.7325 7.12379 22.9607 7.8242 23.9591 7.8242C24.1751 7.8242 24.275 7.79269 24.3093 7.77828C24.492 7.5046 24.8575 7.41548 25.1465 7.58202C25.4481 7.75577 25.5525 8.14019 25.3788 8.44268L19.9997 17.8117C18.6061 20.2379 16.0007 21.745 13.2 21.745ZM12.1656 2.52704L7.50763 10.6393C6.63347 12.1617 6.40481 13.9334 6.86304 15.6277C7.32128 17.322 8.4124 18.7372 9.93474 19.6104C10.9304 20.1821 12.0594 20.4846 13.2 20.4846C15.5506 20.4846 17.7373 19.2197 18.9059 17.1842L23.5674 9.06566C22.0847 8.92342 19.7692 8.02495 17.3754 6.65115C16.8668 6.35857 13.4827 4.37348 12.1656 2.52704Z" fill="#76A9FF"/>
    <path d="M23.9583 9.08456C22.5143 9.08456 19.9918 8.15189 17.3765 6.65025C15.6642 5.66716 14.1454 4.57154 13.0993 3.56504C11.8066 2.32088 11.3798 1.3648 11.794 0.642788C12.0388 0.216063 12.5169 0 13.2146 0C14.6586 0 17.1811 0.932673 19.7964 2.43431C21.5078 3.4174 23.0274 4.51302 24.0735 5.51952C25.3663 6.76368 25.7931 7.71976 25.378 8.44177C25.1341 8.8685 24.656 9.08456 23.9583 9.08456ZM12.9175 1.28918C12.976 1.49624 13.2677 2.02019 14.2022 2.87094C15.1663 3.7487 16.5158 4.70298 18.0031 5.55643C20.7309 7.12289 22.959 7.82329 23.9574 7.82329C24.106 7.82329 24.1996 7.80799 24.2545 7.79448C24.1969 7.58742 23.9043 7.06347 22.9698 6.21272C22.0056 5.33496 20.6561 4.38068 19.1689 3.52723C16.4411 1.96167 14.213 1.26037 13.2146 1.26037C13.0669 1.26037 12.9733 1.27567 12.9175 1.28918Z" fill="#76A9FF"/>
    <path d="M21.2485 13.774C19.015 13.774 15.224 11.6449 14.6865 11.3361C13.9915 10.9373 7.92824 7.37677 9.10489 5.32867C9.27864 5.02709 9.66395 4.92266 9.96554 5.09641C10.2554 5.26295 10.3626 5.62486 10.2176 5.92015C10.2311 6.07499 10.4787 6.61515 11.514 7.55773C12.4782 8.43548 13.8277 9.38976 15.3149 10.2432C16.8021 11.0976 18.3065 11.7818 19.5506 12.1716C20.8866 12.5902 21.4781 12.5308 21.6186 12.4651C21.8004 12.1905 22.1677 12.1014 22.4567 12.2679C22.7583 12.4417 22.8627 12.8261 22.689 13.1286C22.4234 13.5913 21.9021 13.774 21.2485 13.774Z" fill="#76A9FF"/>
    <path d="M13.2064 14.542C13.1001 14.542 12.9921 14.515 12.8931 14.4582C12.1981 14.0594 6.13478 10.4989 7.31143 8.44989C7.48518 8.1483 7.87049 8.04387 8.17208 8.21762C8.46197 8.38417 8.57 8.74608 8.42415 9.04136C8.43766 9.19621 8.68523 9.73637 9.72053 10.6798C10.6847 11.5576 12.0342 12.5119 13.5214 13.3653C13.823 13.5382 13.9275 13.9235 13.7546 14.226C13.6376 14.4285 13.4251 14.542 13.2064 14.542Z" fill="#76A9FF"/>
    <path d="M34.2401 42C33.6909 42 32.02 42 31.7707 40.953C31.5267 39.9303 32.9446 39.1939 33.411 38.9517C34.3886 38.444 35.7273 37.974 37.1795 37.6283C38.5821 37.2943 39.9523 37.1098 41.0371 37.1098C41.5862 37.1098 43.2571 37.1098 43.5065 38.1568C43.7505 39.1795 42.3317 39.9159 41.8662 40.1581C40.8885 40.6658 39.5499 41.1358 38.0977 41.4815C36.6951 41.8163 35.3249 42 34.2401 42ZM33.1301 40.6262C33.3272 40.682 33.6783 40.7405 34.2401 40.7405C35.2295 40.7405 36.4953 40.5686 37.8051 40.2562C40.244 39.6755 41.6997 38.8986 42.1462 38.4845C41.9491 38.4287 41.5979 38.3701 41.0362 38.3701C40.0468 38.3701 38.781 38.5421 37.4711 38.8545C35.0323 39.4361 33.5766 40.2121 33.1301 40.6262Z" fill="#76A9FF"/>
    <path d="M37.3245 38.8761C37.0391 38.8761 36.7807 38.6816 36.7123 38.3917L35.0423 31.3859C34.9613 31.0474 35.171 30.7071 35.5095 30.627C35.8489 30.5459 36.1883 30.7557 36.2685 31.0942L37.9384 38.1C38.0195 38.4385 37.8097 38.7788 37.4712 38.859C37.4226 38.8698 37.3731 38.8761 37.3245 38.8761Z" fill="#76A9FF"/>
    <path d="M33.9791 32.0674C30.3421 32.0674 27.2118 29.5926 26.3674 26.0491L23.8638 15.5431C23.8638 15.5422 23.8629 15.5413 23.8629 15.5404C23.7818 15.2019 23.9916 14.8616 24.3301 14.7814C24.6551 14.704 24.981 14.894 25.0782 15.2082C25.1871 15.3036 25.6886 15.5142 26.9508 15.5142C28.2859 15.5142 29.991 15.2829 31.7537 14.8634C33.4219 14.4654 34.9865 13.9334 36.1596 13.3644C37.419 12.7531 37.8097 12.3048 37.8665 12.1608C37.8106 11.8358 38.0168 11.5198 38.3418 11.4424C38.6803 11.3613 39.0206 11.5711 39.1007 11.9096L41.6053 22.4184C42.0905 24.4539 41.7538 26.556 40.6582 28.3376C39.5626 30.1201 37.8376 31.3679 35.8031 31.8531C35.2035 31.9954 34.5904 32.0674 33.9791 32.0674C33.98 32.0674 33.9791 32.0674 33.9791 32.0674ZM25.423 16.6522L27.5926 25.7565C28.3012 28.7292 30.9272 30.8061 33.9791 30.8061C33.9791 30.8061 33.9791 30.8061 33.98 30.8061C34.4923 30.8061 35.0063 30.7449 35.5096 30.6252C37.2174 30.2183 38.6641 29.1704 39.5842 27.6759C40.5042 26.1806 40.786 24.417 40.3791 22.7092L38.2104 13.6093C36.4242 15.0074 32.6161 15.9527 32.0454 16.0886C30.1908 16.5306 28.3813 16.7737 26.9508 16.7737C26.3539 16.7746 25.8461 16.7341 25.423 16.6522Z" fill="#76A9FF"/>
    <path d="M26.9489 16.7728C25.0682 16.7728 24.0581 16.3686 23.861 15.5385C23.6683 14.7283 24.348 13.9325 25.9406 13.106C27.2297 12.4371 28.997 11.816 30.9172 11.3586C32.7718 10.9166 34.5813 10.6735 36.0118 10.6735C37.8925 10.6735 38.9026 11.0777 39.0997 11.9078C39.2924 12.718 38.6127 13.5139 37.0201 14.3403C35.7309 15.0092 33.9637 15.6304 32.0435 16.0877C30.1889 16.5288 28.3794 16.7728 26.9489 16.7728ZM25.1204 15.2379C25.2924 15.3414 25.8127 15.5124 26.9489 15.5124C28.284 15.5124 29.9891 15.2811 31.7509 14.8615C33.4191 14.4636 34.9846 13.9316 36.1577 13.3626C37.2992 12.8089 37.7268 12.3894 37.8394 12.2076C37.6674 12.104 37.1471 11.933 36.0109 11.933C34.6758 11.933 32.9707 12.1644 31.2089 12.5839C29.5407 12.9818 27.9752 13.5139 26.8021 14.0828C25.6615 14.6365 25.2339 15.056 25.1204 15.2379Z" fill="#76A9FF"/>
    <path d="M28.1543 22.0358C26.6454 22.0358 25.3409 21.7459 25.1141 20.7952C25.0331 20.4567 25.2428 20.1164 25.5813 20.0363C25.9063 19.9588 26.2322 20.1488 26.3294 20.463C26.4456 20.5665 26.9947 20.7898 28.3955 20.7673C29.6991 20.7457 31.3358 20.5152 33.004 20.1173C34.6722 19.7194 36.2368 19.1873 37.4099 18.6184C38.6693 18.0071 39.0601 17.5596 39.1168 17.4147C39.061 17.0897 39.2671 16.7737 39.5921 16.6963C39.9306 16.6153 40.2709 16.825 40.351 17.1635C40.5446 17.9738 39.864 18.7696 38.2714 19.596C36.9823 20.2649 35.215 20.8861 33.2957 21.3435C32.8401 21.4524 30.2933 22.0358 28.1543 22.0358Z" fill="#76A9FF"/>
    <path d="M33.9853 24.8644C33.6999 24.8644 33.4415 24.6699 33.3731 24.38C33.2921 24.0415 33.5018 23.7012 33.8403 23.6211C35.5085 23.2232 37.0732 22.6911 38.2462 22.1222C39.5057 21.5109 39.8964 21.0626 39.9531 20.9185C39.8973 20.5935 40.1035 20.2775 40.4285 20.2001C40.7679 20.1191 41.1073 20.3288 41.1874 20.6673C41.3801 21.4776 40.7004 22.2734 39.1078 23.0999C37.8186 23.7688 36.0514 24.3899 34.132 24.8473C34.0825 24.8581 34.0339 24.8644 33.9853 24.8644Z" fill="#76A9FF"/>
    <path d="M10.9432 40.1419C9.85121 40.1419 8.96265 39.2533 8.96265 38.1613C8.96265 37.0693 9.85121 36.1807 10.9432 36.1807C12.0352 36.1807 12.9238 37.0693 12.9238 38.1613C12.9238 39.2533 12.0352 40.1419 10.9432 40.1419ZM10.9432 37.4411C10.5462 37.4411 10.223 37.7643 10.223 38.1613C10.223 38.5583 10.5462 38.8815 10.9432 38.8815C11.3402 38.8815 11.6634 38.5583 11.6634 38.1613C11.6634 37.7643 11.3402 37.4411 10.9432 37.4411Z" fill="#76A9FF"/>
    <path d="M20.8459 30.239C19.257 30.239 17.9651 28.9462 17.9651 27.3581C17.9651 25.77 19.257 24.4773 20.8459 24.4773C22.4349 24.4773 23.7268 25.77 23.7268 27.3581C23.7268 28.9462 22.434 30.239 20.8459 30.239ZM20.8459 25.7376C19.952 25.7376 19.2255 26.465 19.2255 27.3581C19.2255 28.2512 19.952 28.9786 20.8459 28.9786C21.739 28.9786 22.4664 28.2512 22.4664 27.3581C22.4664 26.465 21.739 25.7376 20.8459 25.7376Z" fill="#76A9FF"/>
    <path d="M32.0093 2.60537C32.5035 2.55586 32.9455 2.91686 32.995 3.41201C33.0446 3.90715 32.6836 4.34828 32.1893 4.3969C31.6942 4.44641 31.253 4.08541 31.2035 3.59026C31.154 3.09602 31.515 2.65399 32.0093 2.60537Z" fill="#76A9FF"/>
    <path d="M40.0226 8.00695C40.5177 7.95744 40.9589 8.31844 41.0084 8.81359C41.0579 9.30783 40.6969 9.74986 40.2026 9.79848C39.7084 9.84799 39.2664 9.48699 39.2169 8.99184C39.1664 8.4976 39.5274 8.05557 40.0226 8.00695Z" fill="#76A9FF"/>
    <path d="M35.6103 6.20642C36.1046 6.1569 36.5466 6.51791 36.5961 7.01305C36.6456 7.5082 36.2846 7.94933 35.7904 7.99794C35.2952 8.04745 34.8541 7.68645 34.8046 7.1913C34.7551 6.69706 35.1161 6.25593 35.6103 6.20642Z" fill="#76A9FF"/>
    <path d="M28.4082 6.20642C28.9024 6.1569 29.3445 6.51791 29.394 7.01305C29.4435 7.5082 29.0825 7.94933 28.5882 7.99794C28.0931 8.04745 27.652 7.68645 27.6024 7.1913C27.5529 6.69706 27.9139 6.25593 28.4082 6.20642Z" fill="#76A9FF"/>
    <path d="M14.0042 25.112C14.4984 25.0624 14.9404 25.4235 14.989 25.9177C15.0386 26.4128 14.6776 26.854 14.1824 26.9035C13.6882 26.953 13.2461 26.592 13.1966 26.0978C13.1489 25.6026 13.5099 25.1606 14.0042 25.112Z" fill="#76A9FF"/>
    <path d="M25.6183 30.518C26.1134 30.4685 26.5546 30.8295 26.6041 31.3238C26.6536 31.818 26.2926 32.26 25.7984 32.3096C25.3041 32.3591 24.8621 31.9981 24.8126 31.5038C24.7621 31.0087 25.1232 30.5666 25.6183 30.518Z" fill="#76A9FF"/>
    <path d="M5.81263 34.1191C6.30778 34.0696 6.74891 34.4306 6.79842 34.9248C6.84794 35.4191 6.48693 35.8611 5.99178 35.9097C5.49664 35.9592 5.05551 35.5982 5.0069 35.104C4.95648 34.6097 5.31749 34.1677 5.81263 34.1191Z" fill="#76A9FF"/>
    <path d="M41.9121 1.7051C42.4072 1.65559 42.8484 2.01659 42.897 2.51174C42.9465 3.00598 42.5855 3.44801 42.0912 3.49663C41.597 3.54614 41.155 3.18514 41.1055 2.68999C41.0568 2.19575 41.4179 1.75462 41.9121 1.7051Z" fill="#76A9FF"/>
    <path d="M23.997 0.800318C24.4921 0.750804 24.9332 1.11181 24.9827 1.60695C25.0323 2.1012 24.6712 2.54323 24.177 2.59184C23.6819 2.64136 23.2407 2.28035 23.1921 1.78521C23.1408 1.29096 23.5018 0.849833 23.997 0.800318Z" fill="#76A9FF"/>
    <path d="M23.6235 35.009L22.3503 36.2823L23.6237 37.5555L24.8968 36.2822L23.6235 35.009Z" fill="#76A9FF"/>
</svg>