<svg xmlns="http://www.w3.org/2000/svg" width="71" height="116" viewBox="0 0 71 116" fill="none">
    <g clip-path="url(#clip0_1_434)">
        <path d="M28.977 44.9761C28.5933 46.733 28.7232 48.5144 28.748 50.2959C28.7727 51.8814 28.5809 53.5097 29.0141 55.0647C29.206 55.7564 29.5154 56.3563 29.9796 56.9073C30.4252 57.4399 30.9451 57.899 31.4278 58.3949C31.8982 58.8785 32.3624 59.4233 32.5913 60.0661C32.8451 60.7762 32.8822 61.5781 32.7894 62.3189C32.6099 63.8615 31.8672 65.2879 31.1184 66.6285C30.3633 67.9814 29.5402 69.3037 28.9894 70.7607C28.4138 72.2789 28.16 73.9929 28.7047 75.5601C28.878 76.0621 29.1441 76.5151 29.5278 76.8885C29.9115 77.2619 30.3633 77.5558 30.7656 77.9047C32.0777 79.0372 32.7461 80.6778 32.22 82.3613C31.8425 83.5918 30.9884 84.6386 30.2705 85.6915C30.0477 86.0221 30.5861 86.3282 30.8027 85.9976C31.3969 85.1161 32.0777 84.2529 32.5171 83.2857C33.105 81.994 33.2164 80.6105 32.6037 79.3066C32.2757 78.6087 31.7806 77.9782 31.1926 77.4701C30.7965 77.1273 30.3571 76.8395 29.9796 76.4845C28.8965 75.4621 28.8656 73.6685 29.1565 72.3156C29.8249 69.1752 32.1952 66.7387 33.1112 63.6901C33.5135 62.3434 33.6249 60.7578 32.9812 59.4662C32.3685 58.2479 31.2112 57.4705 30.3695 56.4359C29.1874 54.9851 29.3236 52.9833 29.3545 51.2325C29.3855 49.2001 29.1255 47.1432 29.5587 45.1414C29.6578 44.7557 29.0636 44.5904 28.977 44.9761Z" fill="white"/>
        <path d="M46.7703 17.453C46.7703 27.0946 38.8732 42.9988 29.1255 42.9988C19.3779 42.9988 11.4807 27.0885 11.4807 17.453C11.4807 7.81128 19.3779 0 29.1255 0C38.8732 0 46.7703 7.81128 46.7703 17.453Z" fill="#FCAF23"/>
        <path d="M27.2439 45.6678L29.1253 42.4417L31.0068 45.6678H27.2439Z" fill="#FCAF23"/>
        <path opacity="0.6" d="M34.3676 33.4428C25.4554 33.4428 18.2267 22.938 18.2267 9.97836C18.2267 7.63376 18.4681 5.36261 18.9075 3.22614C14.4143 6.39105 11.4807 11.5822 11.4807 17.453C11.4807 27.0946 19.3779 42.9988 29.1255 42.9988C35.6054 42.9988 41.2683 35.965 44.338 28.4169C41.5901 31.5635 38.1305 33.4428 34.3676 33.4428Z" fill="#FCAF23"/>
        <path d="M42.1534 13.6147C42.9208 13.1004 43.6944 12.5862 44.4619 12.072C43.6263 9.60495 42.0296 7.3338 39.7397 5.60748C39.1022 6.81346 38.4647 8.02555 37.8273 9.23153C39.7397 10.2538 41.2188 11.8026 42.1534 13.6147Z" fill="white"/>
        <path d="M43.0446 20.4159C43.4469 20.4954 43.8492 20.575 44.2514 20.6546C45.2479 18.2121 45.384 15.5552 44.7528 13.0453C43.9977 13.4739 43.2426 13.9085 42.4938 14.337C43.2798 16.2225 43.5026 18.3345 43.0446 20.4159Z" fill="white"/>
        <path d="M53.6336 63.0596C53.2561 64.8165 53.3798 66.5979 53.4046 68.3793C53.4293 69.9648 53.2375 71.5932 53.6707 73.1481C53.8626 73.8399 54.172 74.4398 54.6362 74.9907C55.0818 75.5233 55.6017 75.9825 56.0844 76.4783C56.5548 76.9619 57.019 77.5068 57.2479 78.1495C57.5017 78.8597 57.5326 79.6616 57.446 80.4023C57.2603 81.945 56.5238 83.3713 55.775 84.712C55.0199 86.0649 54.1968 87.3872 53.646 88.8441C53.0704 90.3623 52.8228 92.0764 53.3613 93.6436C53.5346 94.1455 53.8007 94.5985 54.1844 94.972C54.5681 95.3454 55.0199 95.6392 55.4222 95.9882C56.7343 97.1207 57.4027 98.7613 56.8766 100.445C56.4991 101.675 55.645 102.722 54.9333 103.775C54.7105 104.106 55.2489 104.412 55.4655 104.081C56.0597 103.2 56.7404 102.336 57.1799 101.369C57.7678 100.077 57.8792 98.6939 57.2665 97.39C56.9385 96.6922 56.4434 96.0616 55.8554 95.5535C55.4593 95.2107 55.0199 94.923 54.6424 94.5618C53.5655 93.5395 53.5284 91.7458 53.8192 90.3929C54.4877 87.2525 56.858 84.8161 57.774 81.7675C58.1763 80.4207 58.2939 78.8352 57.644 77.5435C57.0313 76.3253 55.874 75.5478 55.0323 74.5132C53.8502 73.0624 53.9864 71.0606 54.0173 69.3098C54.0482 67.2774 53.7883 65.2205 54.2215 63.2187C54.3144 62.8392 53.714 62.6739 53.6336 63.0596Z" fill="white"/>
        <path d="M70.9999 36.3751C70.9999 46.0167 63.1028 61.9209 53.3551 61.9209C43.6075 61.9209 35.7103 46.0106 35.7103 36.3751C35.7103 26.7334 43.6075 18.9221 53.3551 18.9221C63.1028 18.9221 70.9999 26.7395 70.9999 36.3751Z" fill="#EA5D5A"/>
        <path d="M51.4735 64.59L53.355 61.3638L55.2426 64.59H51.4735Z" fill="#EA5D5A"/>
        <path opacity="0.6" d="M58.5972 52.3649C49.685 52.3649 42.4563 41.8601 42.4563 28.9005C42.4563 26.5559 42.6977 24.2908 43.1371 22.1483C38.6439 25.3132 35.7103 30.5044 35.7103 36.3751C35.7103 46.0167 43.6075 61.9209 53.3551 61.9209C59.835 61.9209 65.4979 54.8871 68.5676 47.339C65.8259 50.4856 62.3601 52.3649 58.5972 52.3649Z" fill="#EA5D5A"/>
        <path d="M66.383 32.5368C67.1504 32.0226 67.924 31.5083 68.6915 30.9941C67.856 28.5271 66.2592 26.2498 63.9693 24.5296C63.3318 25.7356 62.6944 26.9477 62.0569 28.1536C63.9693 29.176 65.4546 30.7248 66.383 32.5368Z" fill="white"/>
        <path d="M67.2741 39.338C67.6764 39.4176 68.0787 39.4971 68.4809 39.5767C69.4774 37.1342 69.6135 34.4774 68.9822 31.9675C68.2272 32.396 67.4721 32.8306 66.7233 33.2591C67.5093 35.1446 67.7321 37.2566 67.2741 39.338Z" fill="white"/>
        <path d="M17.2858 74.8316C16.8959 76.6375 17.0444 78.4618 17.063 80.2922C17.0815 81.8777 16.8959 83.5061 17.3662 85.0487C17.7809 86.4322 18.8083 87.2831 19.7799 88.2932C20.2627 88.7952 20.733 89.3706 20.9435 90.044C21.1601 90.748 21.1972 91.5071 21.0982 92.2356C20.6897 95.3638 18.3193 97.8431 17.261 100.745C16.7164 102.245 16.4936 103.928 17.0444 105.465C17.2239 105.96 17.49 106.407 17.8799 106.775C18.2575 107.136 18.6969 107.424 19.093 107.766C20.405 108.899 21.0734 110.539 20.5474 112.223C20.1698 113.453 19.3158 114.5 18.604 115.553C18.3812 115.884 18.9197 116.19 19.1363 115.859C19.7304 114.978 20.4112 114.115 20.8506 113.141C21.4386 111.856 21.55 110.466 20.9373 109.162C20.6155 108.476 20.1389 107.858 19.5695 107.362C19.161 107.007 18.7092 106.707 18.3193 106.34C17.2548 105.33 17.2053 103.573 17.4776 102.238C18.1213 99.0919 20.4979 96.6432 21.4324 93.6007C21.8471 92.2601 21.9708 90.6685 21.3458 89.3707C20.7516 88.1463 19.5943 87.3566 18.7402 86.3282C17.5581 84.9018 17.6571 82.949 17.6881 81.2104C17.7252 79.1413 17.4529 77.0354 17.8985 74.9908C17.9666 74.6112 17.3724 74.446 17.2858 74.8316Z" fill="white"/>
        <path d="M35.2896 48.3614C35.2896 58.0031 27.3862 73.9072 17.6448 73.9072C7.89714 73.9072 0 58.0031 0 48.3614C0 38.7197 7.89714 30.9084 17.6448 30.9084C27.3924 30.9084 35.2896 38.7197 35.2896 48.3614Z" fill="#FF9A98"/>
        <path d="M15.7632 76.5702L17.6446 73.3441L19.5261 76.5702H15.7632Z" fill="#FF9A98"/>
        <path opacity="0.6" d="M22.8869 64.3513C13.9747 64.3513 6.74599 53.8464 6.74599 40.8868C6.74599 38.5422 6.98736 36.2772 7.42678 34.1346C2.93358 37.2995 0 42.4907 0 48.3614C0 58.0031 7.89714 73.9072 17.6448 73.9072C24.1247 73.9072 29.7876 66.8734 32.8573 59.3254C30.1156 62.4719 26.6498 64.3513 22.8869 64.3513Z" fill="#FF9A98"/>
        <path d="M30.6726 44.5231C31.4462 44.0089 32.2136 43.4947 32.9873 42.9804C32.1517 40.5134 30.5488 38.2422 28.2651 36.5159C27.6276 37.7219 26.9901 38.934 26.3527 40.14C28.2589 41.1623 29.7442 42.7111 30.6726 44.5231Z" fill="white"/>
        <path d="M31.5637 51.3243C31.966 51.4039 32.3683 51.4835 32.7706 51.5631C33.767 49.1205 33.9032 46.4637 33.2719 43.9538C32.5168 44.3823 31.7618 44.817 31.0067 45.2455C31.7989 47.131 32.0217 49.2368 31.5637 51.3243Z" fill="white"/>
    </g>
    <defs>
        <clipPath id="clip0_1_434">
            <rect width="71" height="116" fill="white"/>
        </clipPath>
    </defs>
</svg>