<svg xmlns="http://www.w3.org/2000/svg" width="126" height="100" viewBox="0 0 126 100" fill="none">
    <path d="M99.5542 56.0883C99.5542 78.1344 81.6683 96.0204 59.6221 96.0204C37.576 96.0204 19.6901 78.1481 19.6901 56.0883C19.6901 34.0285 37.576 16.1562 59.6221 16.1562C81.6683 16.1562 99.5542 34.0422 99.5542 56.0883Z" fill="#FFC5C3"/>
    <path d="M59.6223 99.9891C35.414 99.9891 15.7217 80.2968 15.7217 56.0885C15.7217 31.8801 35.414 12.1878 59.6223 12.1878C83.8306 12.1878 103.523 31.8801 103.523 56.0885C103.523 80.2968 83.8306 99.9891 59.6223 99.9891ZM59.6223 20.125C39.7931 20.125 23.6588 36.2593 23.6588 56.0885C23.6588 75.9176 39.7931 92.0519 59.6223 92.0519C79.4515 92.0519 95.5858 75.9176 95.5858 56.0885C95.5858 36.2593 79.4515 20.125 59.6223 20.125Z" fill="#EA5D5A"/>
    <path d="M83.8855 56.0884C83.8855 69.4994 73.0198 80.3651 59.6088 80.3651C46.1977 80.3651 35.332 69.4994 35.332 56.0884C35.332 42.6773 46.1977 31.8116 59.6088 31.8116C73.0198 31.8253 83.8855 42.691 83.8855 56.0884Z" fill="#FFC5C3"/>
    <path d="M59.6223 84.3337C44.049 84.3337 31.377 71.6616 31.377 56.0884C31.377 40.5151 44.049 27.8568 59.6223 27.8568C75.1955 27.8568 87.8676 40.5288 87.8676 56.0884C87.8676 71.6479 75.1955 84.3337 59.6223 84.3337ZM59.6223 35.7802C48.4281 35.7802 39.3141 44.8943 39.3141 56.0884C39.3141 67.2825 48.4281 76.3965 59.6223 76.3965C70.8164 76.3965 79.9304 67.2825 79.9304 56.0884C79.9167 44.8943 70.8164 35.7802 59.6223 35.7802Z" fill="#EA5D5A"/>
    <path d="M70.4335 56.0884C70.4335 62.0549 65.5891 66.8993 59.6226 66.8993C53.656 66.8993 48.8116 62.0549 48.8116 56.0884C48.8116 50.1218 53.656 45.2774 59.6226 45.2774C65.5891 45.2774 70.4335 50.1218 70.4335 56.0884Z" fill="#414042"/>
    <path d="M124.857 24.7777C122.353 23.3545 117.878 21.1102 114.95 19.6596L110.16 13.3509C109.804 10.4361 108.997 4.05899 108.367 0.692546C107.615 -3.37182 89.5645 11.2161 90.7551 24.5314L58.4865 54.583L60.7581 57.5937L98.788 34.4117C110.981 37.7098 128.238 26.6936 124.857 24.7777Z" fill="#FCAF23"/>
    <path d="M40.1481 91.5181L16.2135 83.4715C14.8313 83.0062 14.0923 81.5145 14.5576 80.1461L25.916 46.4132C26.3812 45.031 27.8729 44.2921 29.2414 44.7573L53.176 52.804C54.5581 53.2692 55.2971 54.7609 54.8318 56.1294L43.4872 89.8622C43.0082 91.2444 41.5166 91.9834 40.1481 91.5181Z" fill="white"/>
    <path d="M37.6713 62.0959C37.3702 61.439 36.6039 61.179 35.9744 61.5211L28.6393 65.476C27.2024 66.2561 26.5866 68.0761 27.2709 69.5541L30.7194 77.1354C31.0205 77.7923 31.7868 78.0523 32.4163 77.7102L39.7513 73.7553C41.1882 72.989 41.8041 71.1552 41.1198 69.6772L37.6713 62.0959Z" fill="#EA5D5A"/>
    <path d="M36.9324 93.3381L12.5599 99.9068C11.1504 100.29 9.71346 99.4552 9.33029 98.0457L0.0930854 63.6833C-0.290087 62.2874 0.544682 60.8369 1.95421 60.4537L26.3404 53.8987C27.7363 53.5155 29.1868 54.3503 29.57 55.7598L38.8209 90.1359C39.1767 91.518 38.3419 92.9686 36.9324 93.3381Z" fill="white"/>
    <path d="M20.9623 79.1608C21.7012 80.6662 23.1518 82.4178 23.8908 83.1568C24.9172 84.1832 24.6435 85.2916 23.2476 85.6611L20.538 86.3864C19.1422 86.7696 18.3485 85.9485 18.718 84.539C18.9917 83.4852 19.4706 81.4051 19.279 79.5577C18.0064 83.5126 13.1483 83.4305 12.1903 79.8451C11.0682 75.6986 16.9937 67.7751 16.9937 67.7751C16.9937 67.7751 26.094 71.6616 27.2025 75.8081C28.1604 79.3798 24.0276 81.8841 20.9623 79.1608Z" fill="#414042"/>
</svg>