<svg xmlns="http://www.w3.org/2000/svg" width="42" height="24" viewBox="0 0 42 24" fill="none">
    <path d="M36.2977 7.79329C38.0387 5.90915 37.9188 2.97267 36.0346 1.23168C34.1505 -0.509318 31.214 -0.389382 29.473 1.49476C27.8326 3.27444 27.8326 6.01361 29.473 7.79329C28.6296 7.89001 27.8171 8.16083 27.082 8.58641C27.6198 8.85723 28.1266 9.19382 28.587 9.58458C29.0938 9.39501 29.6316 9.29828 30.1733 9.29828H35.5897C38.1509 9.30215 40.2285 11.3797 40.2323 13.9409V20.9049H31.3378V22.4525H40.2362C41.0912 22.4525 41.7838 21.7599 41.7838 20.9049V13.9409C41.7799 10.7955 39.4199 8.1531 36.2977 7.79329ZM32.8853 1.56053C34.5954 1.56053 35.9804 2.94559 35.9804 4.65563C35.9804 6.36567 34.5954 7.75073 32.8853 7.75073C31.1753 7.75073 29.7902 6.36567 29.7902 4.65563C29.7941 2.94559 31.1753 1.56053 32.8853 1.56053Z" fill="#D898FF"/>
    <path d="M6.1902 9.29828H11.6066C12.1483 9.29828 12.686 9.39501 13.1929 9.58458C13.6533 9.19382 14.1601 8.8611 14.6979 8.58641C13.9628 8.16083 13.1503 7.89001 12.3069 7.79329C14.0479 5.90915 13.928 2.97267 12.0438 1.23168C10.1597 -0.509318 7.22706 -0.389382 5.48607 1.49476C3.84566 3.27444 3.84566 6.01361 5.48607 7.79329C2.36388 8.1531 0.00386888 10.7955 0 13.9409V20.9049C0 21.7599 0.692529 22.4525 1.54755 22.4525H10.446V20.9049H3.86888H1.54755V13.9409C1.55142 11.3759 3.62901 9.30215 6.1902 9.29828ZM8.89841 1.56053C10.6085 1.56053 11.9935 2.94559 11.9935 4.65563C11.9935 6.36567 10.6085 7.75073 8.89841 7.75073C7.18837 7.75073 5.80331 6.36567 5.80331 4.65563C5.80718 2.94559 7.18837 1.56053 8.89841 1.56053Z" fill="#D898FF"/>
    <path d="M24.3043 9.34087C26.0414 7.45673 25.9254 4.52025 24.0412 2.77926C22.1571 1.04213 19.2206 1.1582 17.4796 3.04234C15.8392 4.82202 15.8392 7.56119 17.4796 9.34087C14.3574 9.70068 11.9974 12.3431 11.9935 15.4885V22.4525C11.9935 23.3075 12.6861 24 13.5411 24H28.2428C29.0978 24 29.7904 23.3075 29.7904 22.4525V15.4885C29.7865 12.3431 27.4265 9.70068 24.3043 9.34087ZM20.8919 3.10811C22.602 3.10811 23.987 4.49317 23.987 6.20321C23.987 7.91326 22.602 9.29831 20.8919 9.29831C19.1819 9.29831 17.7968 7.91326 17.7968 6.20321C17.8007 4.49317 19.1819 3.10811 20.8919 3.10811ZM28.2428 22.4525H13.5411V15.4885C13.5449 12.9273 15.6225 10.8497 18.1837 10.8459H23.6002C26.1614 10.8497 28.2389 12.9273 28.2428 15.4885V22.4525Z" fill="#D898FF"/>
</svg>