<svg xmlns="http://www.w3.org/2000/svg" width="49" height="44" viewBox="0 0 49 44" fill="none">
    <path d="M39.6976 27.6632C37.1652 30.1608 34.1781 32.3028 30.8193 34.0294C30.0813 34.4087 29.317 34.7716 28.5478 35.1079C28.4904 35.133 28.4246 35.133 28.3672 35.1079C27.8857 34.8974 27.4058 34.6759 26.9339 34.4473C26.9868 34.3745 27.0385 34.3025 27.0887 34.2316C29.0028 31.5287 30.1006 28.6358 30.1006 26.2947C30.1006 23.8255 29.1857 21.5136 27.5243 19.785C27.2581 19.508 26.8178 19.4992 26.5408 19.7655C26.2637 20.0318 26.255 20.4721 26.5212 20.7491C27.9323 22.2173 28.7093 24.1868 28.7093 26.2948C28.7093 30.4798 24.659 37.0097 17.1528 40.8683C16.6603 41.1214 16.1511 41.3644 15.6394 41.5905C15.5831 41.6154 15.5185 41.6154 15.4622 41.5905C14.9504 41.3644 14.4412 41.1213 13.9488 40.8683C6.44188 37.0096 2.39129 30.4797 2.39129 26.2946C2.39129 22.0365 5.61778 18.5722 9.58369 18.5722C11.6646 18.5722 13.6424 19.5405 15.0102 21.2287C15.1423 21.3917 15.3408 21.4864 15.5507 21.4864C15.7606 21.4864 15.9591 21.3917 16.0912 21.2288C17.459 19.5406 19.437 18.5723 21.5179 18.5723C22.4662 18.5723 23.3881 18.7678 24.258 19.1532C24.609 19.309 25.02 19.1503 25.1758 18.799C25.3314 18.4478 25.1728 18.0369 24.8215 17.8812C23.7731 17.4166 22.6615 17.181 21.5178 17.181C19.2791 17.181 17.145 18.1062 15.5506 19.7444C14.1683 18.3239 12.38 17.4401 10.4698 17.2301C10.0416 15.8742 9.81566 14.5701 9.81566 13.4447C9.81566 7.34993 14.4423 2.39138 20.1292 2.39138C23.1168 2.39138 25.9553 3.77989 27.9169 6.20082C28.049 6.36388 28.2475 6.45858 28.4573 6.45858C28.6671 6.45858 28.8657 6.36388 28.9979 6.20082C30.6742 4.13188 32.9878 2.80895 35.5126 2.47579C35.8934 2.42551 36.1615 2.07602 36.1113 1.69509C36.061 1.31415 35.7116 1.04628 35.3306 1.09637C32.7149 1.4415 30.3027 2.7123 28.4572 4.70166C26.2642 2.33953 23.2716 1 20.1292 1C13.6751 1 8.42437 6.58259 8.42437 13.4446C8.42437 14.6011 8.62092 15.8624 9.00797 17.2019C4.5424 17.5175 1 21.4747 1 26.2946C1 28.6358 2.09782 31.5287 4.01204 34.2315C5.58346 36.4505 8.4727 39.6178 13.3127 42.1055C13.8293 42.371 14.3633 42.6257 14.8999 42.8629C15.1066 42.9543 15.3287 43 15.5507 43C15.7728 43 15.9948 42.9543 16.2017 42.8629C16.7382 42.6258 17.2722 42.371 17.7889 42.1055C21.721 40.0841 24.3655 37.6142 26.0617 35.5689C26.635 35.8517 27.221 36.1252 27.8097 36.3826C28.0156 36.4726 28.2365 36.5176 28.4574 36.5176C28.6784 36.5176 28.8994 36.4726 29.1051 36.3826C29.9008 36.0348 30.6915 35.6593 31.4552 35.2667C34.9397 33.4754 38.0415 31.2506 40.6744 28.6537C40.9479 28.3839 40.951 27.9435 40.6812 27.67C40.4116 27.3964 39.9712 27.3935 39.6976 27.6632Z" fill="#FF9A98" stroke="#FF9A98" stroke-width="0.2"/>
    <path d="M45.656 5.32558C43.8394 3.08347 41.3316 1.59989 38.5949 1.14819C38.2165 1.08586 37.8579 1.34223 37.7953 1.72131C37.7328 2.10039 37.9893 2.45841 38.3684 2.52093C43.3451 3.34225 47.098 8.0384 47.098 13.4447C47.098 16.9613 45.0915 21.4536 41.7305 25.4617C41.4837 25.7561 41.5222 26.1948 41.8166 26.4417C41.9469 26.551 42.1054 26.6043 42.2632 26.6043C42.4617 26.6043 42.659 26.5197 42.7966 26.3556C46.3611 22.1047 48.4893 17.2782 48.4893 13.4447C48.4893 10.464 47.4831 7.58058 45.656 5.32558Z" fill="#FF9A98" stroke="#FF9A98" stroke-width="0.2"/>
</svg>