<svg xmlns="http://www.w3.org/2000/svg" width="22" height="19" viewBox="0 0 22 19" fill="none">
    <path d="M17.2974 12.2291C16.2309 13.281 14.9729 14.1831 13.5583 14.9102C13.2475 15.07 12.9256 15.2228 12.6017 15.3645C12.5775 15.375 12.5498 15.375 12.5256 15.3645C12.3229 15.2758 12.1207 15.1825 11.922 15.0863C11.9443 15.0556 11.9661 15.0253 11.9872 14.9954C12.7933 13.8571 13.2557 12.6388 13.2557 11.6528C13.2557 10.6129 12.8704 9.63926 12.1707 8.91125C12.0586 8.79461 11.8731 8.7909 11.7564 8.90305C11.6398 9.0152 11.6361 9.20063 11.7482 9.31731C12.3425 9.93563 12.6697 10.7651 12.6697 11.6529C12.6697 13.4154 10.9639 16.1654 7.80273 17.7904C7.59531 17.897 7.38086 17.9994 7.16535 18.0946C7.14164 18.1051 7.11441 18.1051 7.09074 18.0946C6.8752 17.9994 6.66074 17.897 6.45336 17.7904C3.29184 16.1654 1.58594 13.4153 1.58594 11.6528C1.58594 9.85945 2.94477 8.40051 4.615 8.40051C5.49137 8.40051 6.32434 8.80828 6.90035 9.51926C6.95598 9.58793 7.03961 9.62781 7.12801 9.62781C7.21641 9.62781 7.3 9.58793 7.35563 9.5193C7.93168 8.80832 8.76469 8.40055 9.64106 8.40055C10.0404 8.40055 10.4287 8.48285 10.795 8.6452C10.9429 8.71078 11.116 8.64395 11.1816 8.49602C11.2471 8.34809 11.1803 8.17504 11.0324 8.10949C10.5908 7.91383 10.1227 7.81461 9.64102 7.81461C8.6982 7.81461 7.79942 8.20422 7.12797 8.89414C6.54578 8.29594 5.79266 7.92371 4.98816 7.83527C4.80785 7.26422 4.7127 6.715 4.7127 6.24106C4.7127 3.67426 6.66117 1.58598 9.05621 1.58598C10.3145 1.58598 11.5099 2.17074 12.336 3.19031C12.3916 3.25898 12.4752 3.29887 12.5636 3.29887C12.652 3.29887 12.7356 3.25898 12.7913 3.19031C13.4972 2.31898 14.4716 1.76184 15.5349 1.62152C15.6953 1.60035 15.8082 1.45316 15.787 1.29273C15.7659 1.1323 15.6187 1.01949 15.4582 1.04059C14.3566 1.18594 13.3407 1.72113 12.5636 2.55895C11.64 1.56414 10.3796 1 9.05621 1C6.33809 1 4.12676 3.35109 4.12676 6.24102C4.12676 6.72809 4.20953 7.25926 4.37254 7.8234C2.49188 7.95629 1 9.62289 1 11.6528C1 12.6388 1.46234 13.8571 2.26852 14.9954C2.93031 15.9299 4.14711 17.2638 6.18547 18.3115C6.40305 18.4233 6.62793 18.5306 6.85391 18.6305C6.94098 18.6689 7.03449 18.6882 7.12801 18.6882C7.22152 18.6882 7.31504 18.6689 7.40215 18.6305C7.62813 18.5306 7.85301 18.4233 8.07059 18.3115C9.7266 17.4602 10.8403 16.42 11.5547 15.5586C11.7961 15.6777 12.0429 15.7929 12.2909 15.9013C12.3775 15.9392 12.4706 15.9582 12.5636 15.9582C12.6567 15.9582 12.7498 15.9392 12.8364 15.9013C13.1715 15.7548 13.5045 15.5967 13.8261 15.4313C15.2936 14.677 16.6 13.74 17.7088 12.6463C17.824 12.5327 17.8253 12.3472 17.7116 12.232C17.5981 12.1168 17.4126 12.1155 17.2974 12.2291Z" fill="#FF9A98" stroke="#FF9A98" stroke-width="0.2"/>
    <path d="M19.8067 2.82167C19.0416 1.87741 17.9855 1.25261 16.8329 1.06237C16.6735 1.03612 16.5225 1.14409 16.4961 1.30374C16.4698 1.46339 16.5779 1.61417 16.7375 1.6405C18.8334 1.9864 20.4139 3.96417 20.4139 6.24101C20.4139 7.72202 19.5689 9.61394 18.1534 11.3019C18.0495 11.4259 18.0657 11.6107 18.1897 11.7147C18.2446 11.7607 18.3113 11.7832 18.3778 11.7832C18.4614 11.7832 18.5445 11.7475 18.6024 11.6784C20.1036 9.88815 20.9999 7.8555 20.9999 6.24101C20.9999 4.98569 20.5761 3.77136 19.8067 2.82167Z" fill="#FF9A98" stroke="#FF9A98" stroke-width="0.2"/>
</svg>